<svg width="75" height="116" viewBox="0 0 75 116" fill="none" xmlns="http://www.w3.org/2000/svg">
<path d="M33.6338 1C34.164 1.03659 34.164 1.03659 34.8038 1.29275C35.1063 1.8731 35.3982 2.45909 35.6812 3.04922C36.2486 3.54845 36.2486 3.54845 36.8511 3.92746C37.4012 4.41446 37.7066 4.75889 38.0211 5.42779C38.2878 6.08004 38.2878 6.08004 39.191 6.26943C39.386 6.75734 39.581 7.24525 39.776 7.73316C40.0655 7.82977 40.3551 7.92637 40.6534 8.02591C40.8484 8.51382 41.0434 9.00173 41.2384 9.48964C41.5279 9.58624 41.8175 9.68285 42.1158 9.78238C42.2133 10.1727 42.3108 10.563 42.4083 10.9534C42.6979 11.05 42.9874 11.1466 43.2857 11.2461C43.4868 11.8499 43.4868 11.8499 43.5782 12.4171C43.7713 12.4171 43.9643 12.4171 44.1632 12.4171C44.4528 13.1416 44.4528 13.1416 44.7482 13.8808C44.9412 13.8808 45.1342 13.8808 45.3331 13.8808C45.4508 14.1344 45.4508 14.1344 45.5708 14.3931C45.9254 15.0656 46.3284 15.6243 46.7955 16.2228C47.3805 17.0035 47.9655 17.7841 48.5504 18.5648C48.7012 18.764 48.8521 18.9633 49.0074 19.1686C49.3569 19.64 49.6875 20.1255 50.0128 20.614C50.1576 20.8072 50.3024 21.0004 50.4516 21.1995C51.0205 21.9588 51.5343 22.7518 52.0602 23.5415C52.2231 23.7407 52.386 23.94 52.5538 24.1452C53.9493 25.9195 55.1478 27.5431 55.8625 29.6891C56.1098 29.9306 56.3572 30.1722 56.612 30.421C57.3249 31.1529 57.3249 31.1529 57.3249 32.0311C57.6145 32.2243 57.904 32.4175 58.2024 32.6166C58.2024 32.9064 58.2024 33.1962 58.2024 33.4948C58.5877 33.8897 58.9785 34.2794 59.3723 34.6658C59.683 35.1735 59.9751 35.6929 60.2497 36.221C60.7541 37.1808 61.2636 38.1277 61.8218 39.057C62.2971 39.9352 62.2971 39.9352 62.2971 40.8135C62.4238 40.938 62.5505 41.0625 62.681 41.1908C63.3694 41.8894 63.6589 42.6625 64.052 43.558C64.4674 44.5 64.8726 45.403 65.4036 46.2853C65.9217 47.1536 66.1269 48.0379 66.3919 49.0104C66.5769 49.4055 66.7723 49.796 66.9768 50.1813C67.5826 51.5258 68.0779 52.8662 68.5135 54.2752C68.7346 54.943 68.7346 54.943 69.3167 55.7435C69.5178 56.3473 69.5178 56.3473 69.6092 56.9145C69.5127 57.1077 69.4161 57.3009 69.3167 57.5C69.5097 57.5966 69.7028 57.6932 69.9017 57.7927C69.8051 57.986 69.7086 58.1792 69.6092 58.3782C69.8022 58.4748 69.9953 58.5715 70.1941 58.671C70.0976 58.9608 70.0011 59.2506 69.9017 59.5492C70.0947 59.6458 70.2877 59.7424 70.4866 59.842C70.3901 60.0352 70.2936 60.2284 70.1941 60.4275C70.3872 60.5241 70.5802 60.6207 70.7791 60.7202C70.9436 61.2946 70.9436 61.2946 71.0716 62.0341C71.1199 62.3 71.1681 62.5659 71.2178 62.8399C71.2661 63.1065 71.3144 63.373 71.3641 63.6477C71.4594 64.0915 71.5568 64.5348 71.6566 64.9776C73.3687 72.8236 73.4796 80.3564 71.7857 88.2063C71.621 88.994 71.4879 89.7853 71.3641 90.5803C71.171 90.5803 70.978 90.5803 70.7791 90.5803C70.8756 90.8701 70.9721 91.16 71.0716 91.4586C70.6694 92.3551 70.6694 92.3551 70.1941 93.215C69.866 93.8297 69.866 93.8297 69.6457 94.6605C69.3235 95.5385 69.0872 95.8149 68.4392 96.4352C68.3335 96.8234 68.2353 97.2138 68.1468 97.6062C67.9537 97.7994 67.7607 97.9926 67.5618 98.1917C67.4653 98.4393 67.3688 98.6868 67.2693 98.9419C66.9768 99.6554 66.9768 99.6554 66.3919 99.9482C66.2954 100.141 66.1988 100.335 66.0994 100.534C65.6413 101.172 65.193 101.734 64.637 102.29C64.4439 102.58 64.2509 102.87 64.052 103.168C63.7497 103.446 63.4379 103.714 63.1197 103.973C62.0101 104.907 60.8965 105.865 59.9573 106.974C59.9573 107.167 59.9573 107.361 59.9573 107.56C59.722 107.638 59.4867 107.717 59.2443 107.797C58.997 107.912 58.7497 108.027 58.4948 108.145C58.3983 108.435 58.3018 108.725 58.2024 109.023C57.5991 109.225 57.5991 109.225 57.0324 109.316C57.0324 109.509 57.0324 109.702 57.0324 109.902C56.8515 109.938 56.6705 109.974 56.484 110.011C55.8066 110.157 55.8066 110.157 55.2775 110.78C55.181 110.973 55.0845 111.166 54.9851 111.365C54.4001 111.56 53.8151 111.756 53.2302 111.951C53.0371 112.241 52.8441 112.53 52.6452 112.829C52.3556 112.829 52.0661 112.829 51.7677 112.829C51.5807 113.022 51.3937 113.215 51.2011 113.415C50.5978 114 50.5978 114 49.4279 114C49.4279 113.517 49.4279 113.034 49.4279 112.536C49.6209 112.44 49.814 112.343 50.0128 112.244C50.1243 111.857 50.2186 111.465 50.3053 111.073C50.6045 110.255 50.9163 109.442 51.2296 108.63C51.534 107.802 51.534 107.802 51.4753 106.681C51.6683 106.681 51.8613 106.681 52.0602 106.681C52.0602 106.005 52.0602 105.329 52.0602 104.632C52.2533 104.632 52.4463 104.632 52.6452 104.632C52.7417 103.376 52.8382 102.12 52.9377 100.826C53.1307 100.826 53.3238 100.826 53.5226 100.826C53.5404 100.603 53.5581 100.38 53.5763 100.151C53.6008 99.8483 53.6254 99.5461 53.6506 99.2346C53.6862 98.7914 53.6862 98.7914 53.7226 98.3392C53.787 97.6246 53.8704 96.9116 53.9682 96.2008C54.1923 94.2044 54.162 92.1928 54.1618 90.1864C54.1624 89.4882 54.1678 88.7901 54.1733 88.092C54.1817 85.7208 54.0858 83.4623 53.6487 81.1218C53.5261 80.3561 53.5004 79.6443 53.5226 78.8705C53.3296 78.7739 53.1366 78.6773 52.9377 78.5777C52.8222 77.8215 52.7891 77.0725 52.7457 76.3089C52.7126 76.0916 52.6794 75.8742 52.6452 75.6503C52.4522 75.5537 52.2591 75.457 52.0602 75.3575C52.0602 74.9711 52.0602 74.5847 52.0602 74.1865C51.8672 74.1865 51.6741 74.1865 51.4753 74.1865C51.3968 73.8726 51.3184 73.5586 51.2376 73.2351C50.9114 72.2041 50.6494 71.7932 50.0128 70.9663C49.6522 70.3791 49.2992 69.7872 48.9526 69.1916C48.6845 68.7336 48.6845 68.7336 48.411 68.2664C47.9655 67.4534 47.9655 67.4534 47.673 66.5751C47.0801 65.6893 47.0801 65.6893 46.2106 65.1114C46.0278 64.5076 46.0278 64.5076 45.9181 63.9404C45.0126 64.132 45.0126 64.132 44.7299 64.8004C44.6394 64.9996 44.5489 65.1989 44.4557 65.4041C44.2626 65.5974 44.0696 65.7906 43.8707 65.9896C43.7742 66.1829 43.6777 66.3761 43.5782 66.5751C43.2878 66.967 42.9951 67.3572 42.7008 67.7461C42.5077 68.0359 42.3147 68.3258 42.1158 68.6244C41.8987 68.9051 41.8987 68.9051 41.6771 69.1916C41.2258 69.7778 41.2258 69.7778 40.9276 70.4174C40.6534 70.9663 40.6534 70.9663 40.0684 71.5518C39.9719 71.8416 39.8754 72.1315 39.776 72.4301C39.5829 72.6233 39.3899 72.8165 39.191 73.0155C39.0945 73.3054 38.998 73.5952 38.8985 73.8938C38.7537 74.0266 38.609 74.1595 38.4598 74.2963C37.8916 74.9124 37.8872 75.4221 37.7286 76.2358C37.5898 76.4169 37.4511 76.598 37.3081 76.7847C36.6987 77.6143 36.5351 78.4689 36.2662 79.456C36.0731 79.7458 35.8801 80.0356 35.6812 80.3342C35.4961 80.9527 35.4961 80.9527 35.3887 81.5052C35.1957 81.5052 35.0026 81.5052 34.8038 81.5052C34.9485 81.9399 34.9485 81.9399 35.0962 82.3834C34.9032 82.3834 34.7102 82.3834 34.5113 82.3834C34.6078 82.7698 34.7043 83.1563 34.8038 83.5544C34.6107 83.5544 34.4177 83.5544 34.2188 83.5544C34.1613 84.3837 34.1069 85.2131 34.0543 86.0427C34.0297 86.3903 34.0297 86.3903 34.0046 86.7449C33.9111 88.2662 33.9857 89.659 34.2188 91.1658C32.8502 90.0243 31.5859 88.8379 30.3571 87.5465C29.83 87.001 29.83 87.001 28.9541 86.7746C28.8154 86.4908 28.6766 86.2071 28.5337 85.9147C28.0283 84.9233 27.8449 84.887 26.9067 84.4326C26.5411 83.6642 26.5411 83.6642 26.3218 82.9689C26.1287 82.9689 25.9357 82.9689 25.7368 82.9689C25.6584 82.7999 25.58 82.6308 25.4992 82.4566C25.1678 81.7852 25.1678 81.7852 24.6948 81.1941C24.2744 80.6269 24.2744 80.6269 23.9819 79.7487C23.6923 79.5555 23.4028 79.3623 23.1045 79.1632C23.1045 78.8734 23.1045 78.5836 23.1045 78.285C22.9657 78.1582 22.827 78.0314 22.684 77.9007C22.0381 77.2025 22.0462 76.5821 21.9345 75.6503C21.8391 75.1619 21.7423 74.6739 21.642 74.1865C21.5697 74.3979 21.4973 74.6092 21.4227 74.8269C21.0571 75.6503 21.0571 75.6503 20.4721 76.3455C19.7743 77.2622 19.5893 78.0522 19.3022 79.1632C19.0305 79.8574 18.73 80.532 18.4247 81.2124C18.2317 81.2124 18.0387 81.2124 17.8398 81.2124C17.9845 81.6472 17.9845 81.6472 18.1323 82.0907C17.9392 82.0907 17.7462 82.0907 17.5473 82.0907C17.6921 82.5254 17.6921 82.5254 17.8398 82.9689C17.6467 82.9689 17.4537 82.9689 17.2548 82.9689C17.3996 83.4036 17.3996 83.4036 17.5473 83.8472C17.3542 83.8472 17.1612 83.8472 16.9623 83.8472C17.1071 84.2819 17.1071 84.2819 17.2548 84.7254C17.0715 85.2178 16.8748 85.7053 16.6698 86.1891C15.821 89.8603 15.7102 93.8657 16.5419 97.5479C16.6698 98.1917 16.6698 98.1917 16.6698 99.3627C16.8629 99.4593 17.0559 99.5559 17.2548 99.6554C17.1583 99.8487 17.0618 100.042 16.9623 100.241C17.1554 100.338 17.3484 100.434 17.5473 100.534C17.914 101.161 17.914 101.161 18.2968 101.943C18.4238 102.198 18.5509 102.453 18.6818 102.717C19.0097 103.461 19.0097 103.461 19.1639 104.105C19.273 104.701 19.273 104.701 19.8871 105.218C20.0802 105.314 20.2732 105.411 20.4721 105.51C20.6549 106.114 20.6549 106.114 20.7646 106.681C20.9576 106.681 21.1507 106.681 21.3496 106.681C21.4227 106.898 21.4958 107.114 21.5712 107.337C21.9641 108.211 22.3854 108.705 23.0679 109.371C23.2662 109.568 23.4645 109.766 23.6689 109.969C24.2446 110.462 24.7654 110.75 25.4443 111.073C25.6374 111.266 25.8304 111.459 26.0293 111.658C26.2223 111.755 26.4154 111.851 26.6142 111.951C26.759 112.386 26.759 112.386 26.9067 112.829C25.4762 112.667 24.3318 112.207 23.0679 111.548C22.8903 111.459 22.7127 111.37 22.5298 111.278C21.5775 110.792 20.7358 110.254 19.8871 109.609C19.5976 109.512 19.308 109.416 19.0097 109.316C18.8167 109.123 18.6236 108.93 18.4247 108.731C18.2317 108.634 18.0387 108.537 17.8398 108.438C16.4488 107.51 15.1537 106.526 13.8547 105.474C13.1448 104.898 13.1448 104.898 12.2826 104.339C12.0111 104.043 11.7498 103.737 11.4966 103.425C10.4693 102.201 9.39593 100.997 8.18784 99.9482C7.99481 99.9482 7.80177 99.9482 7.60288 99.9482C7.4581 99.3686 7.4581 99.3686 7.3104 98.7772C7.11736 98.7772 6.92432 98.7772 6.72543 98.7772C6.64098 98.6021 6.55652 98.427 6.46951 98.2466C6.1266 97.5496 6.1266 97.5496 5.5555 96.728C5.47105 96.5529 5.38659 96.3778 5.29958 96.1974C4.9646 95.5092 4.9646 95.5092 4.40385 94.7519C3.71199 93.6608 3.31264 92.6896 2.92316 91.4586C3.01968 91.2653 3.1162 91.0721 3.21564 90.8731C3.0226 90.7765 2.82956 90.6798 2.63068 90.5803C2.7272 90.3871 2.82371 90.1939 2.92316 89.9948C2.73012 89.8982 2.53708 89.8016 2.33819 89.7021C1.88509 87.4431 2.01316 85.1169 2.02743 82.8225C2.0289 82.4101 2.03023 81.9977 2.03143 81.5852C2.03486 80.5827 2.03966 79.5802 2.04571 78.5777C2.23875 78.5777 2.43179 78.5777 2.63068 78.5777C2.63068 77.8049 2.63068 77.032 2.63068 76.2358C2.82371 76.2358 3.01675 76.2358 3.21564 76.2358C3.11912 75.9459 3.0226 75.6561 2.92316 75.3575C3.1162 75.3575 3.30924 75.3575 3.50812 75.3575C3.49606 75.0858 3.48399 74.8141 3.47156 74.5342C3.50812 73.601 3.50812 73.601 4.09309 72.7228C4.21977 72.3334 4.21977 72.3334 4.34901 71.936C5.29618 69.1447 5.29618 69.1447 6.26207 68.2339C6.79611 67.6717 7.09308 67.1238 7.44064 66.431C7.56846 66.1763 7.69627 65.9216 7.82795 65.6592C7.95878 65.3939 8.08961 65.1286 8.2244 64.8552C8.3575 64.5922 8.49059 64.3292 8.62771 64.0582C8.75477 63.8027 8.88183 63.5472 9.01274 63.284C9.12815 63.052 9.24357 62.82 9.36249 62.5809C9.6616 61.864 9.80194 61.1893 9.94274 60.4275C10.2706 59.7596 10.2706 59.7596 10.6557 59.1101C11.1915 58.2008 11.6057 57.3116 11.9901 56.329C12.3218 55.5683 12.667 54.8141 13.0138 54.0602C13.1039 53.8599 13.194 53.6595 13.2869 53.453C13.9697 51.9718 13.9697 51.9718 14.6225 51.6451C14.6647 51.3794 14.7069 51.1137 14.7504 50.84C14.9259 49.8251 15.2529 49.2888 15.7924 48.4249C15.9909 47.8406 16.1862 47.2552 16.3774 46.6684C16.5704 46.3786 16.7634 46.0888 16.9623 45.7902C17.0106 45.5486 17.0588 45.3071 17.1086 45.0583C17.2548 44.3264 17.2548 44.3264 17.8398 43.4482C18.8896 40.6218 19.119 37.8823 19.1194 34.8854C19.12 34.413 19.12 34.413 19.1207 33.931C19.0951 32.0508 18.9062 30.2664 18.5488 28.4201C18.4275 27.6573 18.4029 26.947 18.4247 26.1762C18.1352 26.0313 18.1352 26.0313 17.8398 25.8834C18.0328 25.6902 18.2258 25.497 18.4247 25.2979C18.6178 25.2979 18.8108 25.2979 19.0097 25.2979C19.0663 25.4745 19.1228 25.6511 19.1811 25.8331C19.2572 26.0671 19.3334 26.301 19.4119 26.5421C19.4865 26.773 19.5612 27.004 19.6381 27.2419C19.8736 27.8952 20.1537 28.4876 20.4721 29.1036C20.7691 29.7848 21.0614 30.4679 21.3496 31.1529C21.4702 31.4246 21.5909 31.6963 21.7152 31.9762C21.7876 32.1875 21.8599 32.3989 21.9345 32.6166C21.838 32.8098 21.7415 33.003 21.642 33.2021C21.8351 33.2987 22.0281 33.3953 22.227 33.4948C22.8993 35.0021 23.2136 36.3036 23.3067 37.9489C23.3365 38.1214 23.3663 38.2938 23.3969 38.4715C23.59 38.5681 23.783 38.6647 23.9819 38.7643C23.8854 39.0541 23.7889 39.3439 23.6894 39.6425C23.8825 39.7391 24.0755 39.8357 24.2744 39.9352C24.5779 41.0829 24.6965 42.2734 24.8594 43.4482C24.9178 43.8225 24.9762 44.1969 25.0364 44.5826C25.5134 47.8502 25.4031 50.9939 25.1518 54.2798C24.9588 54.2798 24.7658 54.2798 24.5669 54.2798C24.5035 54.8141 24.5035 54.8141 24.4389 55.3593C24.362 56.0077 24.2716 56.6339 24.1281 57.2713C23.9257 58.3986 23.8758 59.5226 23.8174 60.6653C23.7984 61.0115 23.7984 61.0115 23.7791 61.3646C23.7483 61.9304 23.7187 62.4963 23.6894 63.0622C23.8825 63.1588 24.0755 63.2554 24.2744 63.3549C24.1779 63.5481 24.0813 63.7413 23.9819 63.9404C24.1749 64.037 24.368 64.1336 24.5669 64.2332C24.7668 64.621 24.9616 65.0115 25.1518 65.4041C25.3449 65.5974 25.5379 65.7906 25.7368 65.9896C26.0718 64.9836 26.0373 64.2502 26.011 63.1903C25.9719 60.5837 26.2833 58.0324 26.6142 55.4508C26.8073 55.4508 27.0003 55.4508 27.1992 55.4508C27.1027 55.0644 27.0062 54.6779 26.9067 54.2798C27.0998 54.2798 27.2928 54.2798 27.4917 54.2798C27.4917 53.7002 27.4917 53.1205 27.4917 52.5233C27.6847 52.5233 27.8778 52.5233 28.0767 52.5233C27.9801 52.2335 27.8836 51.9437 27.7842 51.6451C28.1681 50.7851 28.1681 50.7851 28.6616 49.8886C28.8575 49.4987 29.0525 49.1084 29.2466 48.7176C29.3431 48.5312 29.4396 48.3448 29.5391 48.1527C30.0133 47.2293 30.4217 46.3597 30.7456 45.3693C31.0015 44.6192 31.0015 44.6192 31.5864 44.3264C31.683 44.0366 31.7795 43.7468 31.8789 43.4482C32.072 43.255 32.265 43.0618 32.4639 42.8627C32.5604 42.6695 32.6569 42.4763 32.7564 42.2772C33.3413 41.399 33.3413 41.399 33.9446 40.6671C34.5569 39.9597 34.5569 39.9597 34.8038 39.057C34.9968 38.8638 35.1898 38.6706 35.3887 38.4715C35.4792 38.1998 35.5697 37.9281 35.6629 37.6482C35.9737 36.715 35.9737 36.715 36.4307 35.9649C36.8715 35.2168 37.0094 34.6384 37.1436 33.7876C37.2884 33.3528 37.2884 33.3528 37.4361 32.9093C37.6291 32.9093 37.8222 32.9093 38.0211 32.9093C39.1381 26.4805 38.8661 20.0199 37.5435 13.6504C37.4361 13.0026 37.4361 13.0026 37.4361 11.8316C37.2431 11.735 37.05 11.6384 36.8511 11.5389C36.9477 11.249 37.0442 10.9592 37.1436 10.6606C36.9506 10.564 36.7575 10.4674 36.5587 10.3679C36.7034 9.93315 36.7034 9.93315 36.8511 9.48964C36.6581 9.39303 36.4651 9.29643 36.2662 9.19689C36.3627 9.00368 36.4592 8.81047 36.5587 8.6114C36.3656 8.51479 36.1726 8.41819 35.9737 8.31865C36.0702 8.12544 36.1667 7.93223 36.2662 7.73316C36.0731 7.73316 35.8801 7.73316 35.6812 7.73316C35.3522 6.63536 35.3522 6.63536 35.6812 5.97668C35.4882 5.97668 35.2951 5.97668 35.0962 5.97668C34.9786 5.5329 34.9786 5.5329 34.8586 5.08015C34.6382 4.29779 34.3691 3.57076 34.036 2.82966C33.6338 1.87824 33.6338 1.87824 33.6338 1Z" fill="url(#paint0_linear_4_186)"/>
<path d="M38.0823 3.12586C38.5301 3.51188 39.0617 4.21028 39.3308 4.81199L39.3607 4.87993C39.4087 4.99472 39.4603 5.11156 39.4654 5.11593C39.466 5.11726 39.4491 5.0746 39.3787 4.99078C39.3109 4.90759 39.1878 4.81432 39.1197 4.77986C38.9779 4.71098 39.0496 4.75004 39.1394 4.76618C39.2347 4.78776 39.3606 4.8131 39.4908 4.83965L40.2468 4.99191L40.5476 5.7273C40.7435 6.20933 40.9409 6.69876 41.1375 7.18904L40.24 6.34229C40.5329 6.43965 40.8258 6.53743 41.1174 6.63517L41.7527 6.84132L42.0148 7.48184C42.2114 7.97565 42.4056 8.46645 42.5949 8.94753L41.7007 8.10391C41.9969 8.20449 42.2893 8.30413 42.5763 8.4023L43.3241 8.64475L43.5273 9.42982C43.6246 9.83227 43.7189 10.2248 43.8092 10.6035L42.8653 9.58368C42.9767 9.62216 43.0868 9.66027 43.1955 9.69795C43.516 9.80895 43.6538 9.8697 43.7306 9.91291L44.3874 10.1257L44.6192 10.802C44.6411 10.9623 44.5867 10.8923 44.723 11.3583C44.8191 11.7013 44.8523 11.989 44.8893 12.2058L43.5782 11.0891C43.7744 11.0891 43.9692 11.0881 44.1632 11.0865L45.0524 11.0786L45.3987 11.9233C45.5986 12.4121 45.7984 12.8908 45.9938 13.383L44.7482 12.5394C44.9419 12.5398 45.1367 12.5415 45.3331 12.5451L46.1737 12.5374L46.5449 13.3187C46.5669 13.3686 46.5886 13.418 46.6103 13.4678C46.7715 13.8391 46.4374 13.4388 46.609 13.827C46.6193 13.8503 46.6295 13.8735 46.64 13.8971L46.6134 13.8434C46.9021 14.4215 47.277 14.9523 47.712 15.5075L47.7259 15.5257C48.3104 16.3048 48.8975 17.0747 49.4908 17.8601C49.6398 18.0553 49.7926 18.2561 49.9458 18.4583L49.9529 18.4677C50.1439 18.725 50.3283 18.9859 50.5081 19.2492C50.6716 19.4887 50.8307 19.7276 50.9872 19.965L50.9497 19.912C51.095 20.1079 51.2403 20.3038 51.3856 20.4996C51.9824 21.3038 52.5054 22.12 53.0217 22.901L52.9546 22.8103C53.1185 23.0122 53.2822 23.2141 53.446 23.4159L53.4596 23.4328C54.7994 25.1381 56.207 27.0614 56.9404 29.3301L56.6562 28.8763C56.9057 29.1206 57.1551 29.365 57.4046 29.6093L57.4247 29.6293C57.6426 29.8768 57.8574 29.9918 58.2165 30.597C58.3934 30.9241 58.4394 31.3008 58.4487 31.5027C58.46 31.7197 58.4568 31.8737 58.4573 32.0311L57.9534 31.0891C58.2457 31.2846 58.538 31.48 58.8304 31.6754L59.327 31.9988L59.3339 32.6166C59.3337 32.9093 59.3335 33.202 59.3333 33.4948L59.0117 32.7049C59.3897 33.0926 59.7744 33.4767 60.1639 33.859L60.3364 34.0758C60.6614 34.6072 60.9661 35.1493 61.2524 35.6996C61.7491 36.6448 62.2516 37.5775 62.7912 38.4747L62.8164 38.5188C62.9619 38.805 63.1244 39.0236 63.3066 39.5597C63.4759 40.1624 63.4163 40.5094 63.4289 40.8135L63.0905 40.0064C63.2185 40.1321 63.3465 40.2578 63.4746 40.3835L63.4873 40.3963C64.3328 41.235 64.7436 42.3173 65.0902 43.1022C65.4968 44.0241 65.8953 44.9029 66.3768 45.6996C66.9901 46.7163 67.2422 47.8114 67.4893 48.7113L67.422 48.5279C67.4847 48.6617 67.5487 48.795 67.6139 48.9278C67.7309 49.166 67.8531 49.4065 67.9804 49.6487L68.0127 49.7146C68.6012 51.0293 69.1234 52.4727 69.5623 53.951L69.5557 53.9301C69.5983 54.0635 69.64 54.195 69.6732 54.2869C69.7082 54.3819 69.7211 54.4116 69.7638 54.4859C69.8532 54.6376 70.0309 54.8816 70.1916 55.1074L70.343 55.4017C70.4604 55.7226 70.6333 56.3959 70.6693 56.7437L70.7263 57.0709L70.5698 57.3944C70.4712 57.5895 70.3729 57.7844 70.2753 57.9789L69.7962 56.5418C69.9916 56.6401 70.1866 56.7379 70.381 56.835L71.3318 57.2957L70.8598 58.2714C70.7621 58.4674 70.665 58.6629 70.5688 58.8576L70.0893 57.419C70.2857 57.5162 70.4814 57.6126 70.6761 57.7079L71.5036 58.1089L71.2159 59.0113C71.12 59.3076 71.0259 59.6016 70.934 59.893L70.3886 58.5762C70.5867 58.6715 70.7836 58.7655 70.979 58.858L71.9557 59.3312L71.4709 60.3337C71.4318 60.4164 71.393 60.4988 71.3544 60.581C71.1561 61.0042 71.4225 60.8259 71.3951 60.9116C71.3841 60.946 71.3732 60.9792 71.3626 61.0111L70.7787 59.2595C71.0647 59.3548 71.255 59.4327 71.3888 59.5019L71.9116 59.7551L72.0889 60.3451C72.2091 60.8028 72.0538 60.8787 72.1478 61.5771C72.1598 61.6665 72.1714 61.7541 72.1831 61.8418C72.2196 62.1012 72.2588 62.3716 72.2992 62.6436C72.3391 62.9134 72.38 63.1842 72.4219 63.4562L72.4151 63.4219C72.4975 63.862 72.5847 64.3046 72.6765 64.7478C73.2127 67.407 73.6429 70.1459 73.904 72.6381C74.0522 74.1405 74.2854 72.6065 74.1954 74.1399C74.1885 74.2459 73.9811 73.8736 73.9855 74.2876C74.0017 75.2257 74.0707 77.0049 74.0427 77.7326C73.9931 79.1336 73.9846 79.3651 73.9051 80.6883C73.788 82.4982 73.4392 84.6258 73.1437 86.5434C73.0811 86.9536 73.3782 86.449 73.2942 87.1082C73.2548 87.4118 73.1591 87.9404 73.0425 88.4775C72.92 89.0588 72.8007 89.6739 72.7264 89.9717C72.5895 90.5242 72.4669 90.2603 72.4144 90.3537C72.3561 90.4564 72.3081 90.5812 72.2686 90.7212L72.1602 91.485L71.3641 91.4958C71.1852 91.4744 70.9861 91.4689 70.7791 91.4742L71.6272 90.2979C71.731 90.5847 71.8625 90.8802 71.9934 91.1516L72.1135 91.4967L71.9581 91.8562C71.7987 92.4012 71.6471 92.9517 71.5873 93.068C71.4636 93.328 71.348 93.556 71.2309 93.788L71.2391 93.7729C71.1195 94.0174 71.0254 94.2094 70.998 94.3198C70.955 94.4632 70.8924 94.7309 70.8323 94.975L70.7982 95.0834C70.6089 95.8376 69.8125 96.9204 69.3012 97.3355L69.6418 96.7629C69.5394 97.1375 69.4438 97.5093 69.3567 97.8792L69.2859 98.2138L69.0242 98.4829C68.8269 98.6769 68.6298 98.8698 68.4328 99.0619L68.7089 98.639C68.608 98.8882 68.507 99.1368 68.4058 99.385L68.398 99.4045C68.2868 99.6317 68.2783 99.8005 67.9277 100.304C67.7331 100.563 67.4466 100.752 67.2992 100.831C67.1404 100.919 67.0345 100.967 66.9276 101.019L67.4627 100.483C67.362 100.677 67.2613 100.87 67.1607 101.064L67.063 101.226C66.5927 101.862 66.0611 102.515 65.4577 103.11L65.6025 102.933C65.4071 103.223 65.2116 103.516 65.0163 103.811L64.836 104.021C64.7576 104.094 64.6786 104.166 64.5991 104.237C64.3564 104.456 64.1087 104.669 63.8575 104.878L63.8713 104.867C62.7864 105.798 61.7362 106.745 60.901 107.774L61.1942 106.974C61.1977 107.17 61.2013 107.365 61.2047 107.56L61.2164 108.442L60.3521 108.743C60.1151 108.827 59.8787 108.91 59.6432 108.993L59.7747 108.941C59.5256 109.061 59.2775 109.181 59.0306 109.3L59.7029 108.547C59.6091 108.844 59.5154 109.138 59.4218 109.429L59.232 110.026L58.6091 110.243C58.2992 110.366 57.5706 110.558 57.2389 110.595L58.3277 109.316C58.3284 109.465 58.3289 109.613 58.3291 109.761C58.3292 109.808 58.3293 109.855 58.3293 109.902L58.343 110.947L57.287 111.173C57.1029 111.21 56.9201 111.247 56.7385 111.283L56.7562 111.279C56.6339 111.305 56.5147 111.33 56.4595 111.345C56.3925 111.365 56.4891 111.336 56.5447 111.291C56.6251 111.212 56.4035 111.441 56.2596 111.614L56.4302 111.356C56.3304 111.551 56.2311 111.745 56.1321 111.938L55.9083 112.401L55.3909 112.582C54.7967 112.773 54.2109 112.96 53.6288 113.146L54.2784 112.649C54.079 112.94 53.8803 113.23 53.6819 113.52L53.3282 114.066L52.6452 114.075C52.3528 114.071 52.0606 114.068 51.7677 114.064L52.6554 113.688C52.4649 113.881 52.2742 114.074 52.0832 114.268L52.0561 114.296C51.9358 114.409 51.823 114.525 51.6163 114.695C51.4288 114.863 50.9819 115.105 50.6574 115.154C50.0359 115.256 49.7794 115.211 49.4279 115.222L48.222 115.237L48.2061 114C48.205 113.597 48.2023 113.189 48.1976 112.776C48.1942 112.453 47.9932 112.716 47.9236 112.536L47.912 111.626L48.7547 111.191C48.7802 111.163 48.8234 111.132 48.8924 111.096C49.0371 111.021 49.1817 110.946 49.3264 110.872L48.539 111.819C48.6333 111.474 48.7159 111.113 48.7944 110.739L48.8523 110.541C49.1491 109.704 49.4585 108.881 49.7689 108.067L49.7603 108.09C49.8168 107.934 49.8727 107.781 49.9039 107.682C49.9364 107.575 49.93 107.591 49.9346 107.552C49.9448 107.46 49.9262 107.084 49.9095 106.763L49.8037 105.134L51.4753 105.113C51.6703 105.114 51.8653 105.114 52.0602 105.115L50.4939 106.681C50.4963 105.998 50.5009 105.315 50.508 104.632L50.489 103.099L52.0602 103.08C52.2552 103.082 52.4502 103.084 52.6452 103.087L51.1043 104.514C51.2177 103.246 51.3402 101.98 51.4739 100.714L51.5605 99.3751L52.9377 99.3583C53.1326 99.3639 53.3276 99.3697 53.5226 99.3758L52.0766 100.712C52.1015 100.487 52.1268 100.262 52.1525 100.037C52.1673 99.9092 52.182 99.7832 52.1968 99.6573C52.2558 99.16 52.476 99.8248 52.5514 99.3294C52.5604 99.2695 52.5696 99.209 52.579 99.1477C52.6222 98.8639 52.6686 98.5673 52.7169 98.2584C52.8311 97.5586 52.9707 96.8245 53.1155 96.0835L53.1129 96.1048C53.486 93.942 53.4358 91.5683 52.8505 90.1865C52.7768 90.0122 52.694 89.8546 52.6009 89.7147C52.612 89.19 52.6254 88.639 52.6423 88.0798C52.6891 86.4488 52.6915 84.7584 52.7256 83.4156C52.7441 82.2582 53.2083 83.3233 52.8667 81.9368C52.7844 81.6267 52.5842 82.0785 52.4788 81.6152C52.4584 81.5275 52.438 81.4401 52.4173 81.3518L52.4117 81.3198C52.2462 80.5081 52.2009 79.6442 52.2177 78.8329L52.9384 80.0379C52.7424 79.9427 52.5463 79.8471 52.3502 79.7516L51.7519 79.4601L51.64 78.7758C51.502 77.9272 51.458 77.1178 51.384 76.3862L51.3975 76.5147C51.3543 76.2948 51.3095 76.0768 51.2626 75.8613L52.0193 76.901C51.9244 76.8607 51.8297 76.8211 51.7353 76.7822C51.4967 76.6845 51.4004 76.7492 51.3325 76.8116L50.4447 76.3786L50.4342 75.3575C50.3794 75.3366 50.3305 75.3257 50.3127 75.2793C50.1949 74.9611 50.1743 74.5759 50.2029 74.1865L52.0602 76.0439C51.8636 76.0295 51.6659 76.0026 51.4753 75.9694L50.1012 75.9833L49.7455 74.6186C49.718 74.2391 49.7207 73.8803 49.7219 73.6137L49.7481 73.7064C49.7438 73.5491 49.7387 73.4338 49.7262 73.3722C49.6026 72.7301 49.3956 72.3484 48.9821 71.7598L48.9045 71.6471C48.5536 71.0157 48.2077 70.4207 47.8595 69.8276C47.6798 69.5235 47.4973 69.2199 47.3108 68.9105L47.293 68.8792C47.0171 68.4403 46.6013 67.5318 46.4455 66.9839L46.5978 67.2947C46.5666 67.2483 46.5372 67.2044 46.5071 67.1597C46.1947 66.6997 46.2621 67.4059 45.9805 67.024C45.8585 66.8725 45.902 66.9272 45.8021 66.8492C45.6986 66.7743 45.4858 66.6376 45.2835 66.5065L44.7917 66.1862L44.6073 65.5968C44.4961 65.2751 44.3211 64.6055 44.2642 64.2602L46.2667 65.5884C46.1375 65.6163 46.0122 65.643 45.9222 65.6646C45.8381 65.6799 45.7767 65.7212 45.9577 65.633C46.0448 65.5888 46.191 65.4774 46.2722 65.3792C46.3567 65.2803 46.3797 65.2274 46.3825 65.2233C46.3836 65.2167 46.3293 65.3366 46.2786 65.4554L46.2609 65.4957C46.1679 65.6964 46.0745 65.8967 45.9806 66.0967L45.6405 66.5879C45.4427 66.7809 45.2445 66.9729 45.0461 67.164L45.3571 66.7322C45.2556 66.9258 45.1538 67.1188 45.0516 67.3112L44.9014 67.5559C44.5958 67.9476 44.2874 68.3333 43.9772 68.7122L44.0331 68.6335C43.8256 68.9204 43.6177 69.2047 43.4096 69.4861L43.3454 69.5754C43.326 69.5982 43.3072 69.62 43.2881 69.6424C42.8633 70.1365 42.9886 69.477 42.7734 69.7035C42.7089 69.7716 42.65 69.8379 42.5961 69.9024C42.3934 70.1455 42.276 70.3463 42.2714 70.4501C42.2529 70.5707 42.2204 70.7894 42.1816 71.0021L42.1653 71.0357C42.1216 71.2159 42.0995 71.3974 41.8866 71.7606C41.6548 72.1295 41.4506 72.3172 41.2367 72.5015C41.1695 72.5581 41.1172 72.5675 41.0735 72.5559L41.4163 72.0007C41.3184 72.0191 41.2147 71.9175 41.185 71.9445C40.9046 72.1979 40.8076 72.4934 40.7867 72.7667L40.5296 73.183C40.3315 73.5135 40.2879 73.8719 40.2098 73.9622C40.1989 73.975 40.1879 73.9878 40.1769 74.0006L40.5132 73.4559C40.4341 73.7688 40.3467 74.0637 40.2532 74.3449L40.1424 74.6863L39.8638 74.9459C39.7141 75.0833 39.5649 75.2137 39.4161 75.3386L39.4997 75.2553C39.3493 75.4027 39.3025 75.4242 39.2112 75.5904C39.1225 75.7562 39.0293 76.1018 38.9148 76.467L38.688 76.9707C38.526 77.1353 38.3639 77.3005 38.2021 77.4694L38.2156 77.4513C37.8314 77.8293 37.5717 78.3587 37.3965 79.1856C37.3328 79.477 37.8296 78.9039 37.6269 79.7318C37.6196 79.7612 37.6121 79.7908 37.6045 79.8206L37.4207 80.2249C37.2318 80.5203 37.0417 80.8164 36.8504 81.1129L37.027 80.737C36.9729 80.9286 36.9146 81.1288 36.882 81.2652C36.8521 81.3884 36.8193 81.5752 36.7821 81.776L36.5683 82.9168L35.3887 82.9246C35.194 82.9265 34.999 82.9282 34.8038 82.9297L36.1553 81.0551C36.255 81.3472 36.3538 81.6381 36.4528 81.9316L37.0884 83.8007L35.0962 83.8132C34.9014 83.814 34.7064 83.8146 34.5113 83.8149L35.9001 82.0365C35.9981 82.4261 36.0954 82.8166 36.1919 83.2077L36.6446 84.9738L34.8038 84.9852C34.6089 84.9846 34.4139 84.9838 34.2188 84.9828L35.6438 83.6533C35.5823 84.478 35.5198 85.3048 35.4552 86.1316L35.4545 86.1419C35.4344 86.3763 35.4142 86.609 35.3935 86.8432L35.3944 86.8302C35.2803 88.218 35.3157 89.5871 35.4805 90.9707L36.0066 94.3063L33.4011 92.1462C32.5965 91.4274 31.8274 90.6816 31.1006 89.9166C30.4968 89.2761 31.1295 89.5263 31.1112 89.4647C30.8201 88.4875 29.9489 88.5435 29.7296 88.3526C29.6917 88.319 29.6541 88.2851 29.6169 88.2509C29.5181 88.1627 29.4184 88.069 29.3497 88.0109C29.2743 87.9481 29.2851 87.9644 29.2763 87.9591C29.2443 87.9386 28.9397 87.8497 28.6946 87.7787L28.2359 87.6623L28.0224 87.2301C27.8885 86.9328 27.761 86.6394 27.6333 86.3549L27.6408 86.3698C27.4804 86.0182 27.3214 85.7658 27.2304 85.7313C27.1295 85.6649 26.755 85.5398 26.4056 85.4674L26.0453 85.2945L25.8685 84.9266C25.6939 84.7136 25.5044 84.5405 25.2679 84.3096C25.126 83.9523 25.0496 83.6543 24.9727 83.3946L26.3218 84.3836C26.1268 84.3789 25.9318 84.3744 25.7368 84.3703L24.8468 84.3733L24.4655 83.5586C24.3899 83.3861 24.3141 83.2138 24.2381 83.0416L24.2526 83.0718C23.9958 82.5263 24.0016 82.5237 23.6277 82.0482L23.5968 82.0081C23.5166 81.8965 23.4354 81.7868 23.3335 81.6369C23.2339 81.4923 23.0992 81.264 23.0148 81.0652C22.8503 80.6737 22.7895 80.4409 22.7001 80.1756L23.2321 80.8725C22.9409 80.6752 22.6496 80.4784 22.358 80.2819L21.7615 79.8862L21.7596 79.1632C21.7609 78.8704 21.7619 78.5777 21.7626 78.285L22.1992 79.2755C22.0594 79.1471 21.9195 79.0187 21.7796 78.8904L21.6999 78.8112C21.3073 78.4039 20.9394 77.7602 20.8068 77.1787C20.6666 76.5995 20.6527 76.1766 20.6038 75.8098L20.6192 75.9074C20.5238 75.4214 20.4274 74.9377 20.3282 74.4568L22.911 74.6212C22.838 74.8347 22.765 75.0482 22.6919 75.2617L22.6489 75.3714C22.5212 75.6471 22.4226 75.9256 22.1642 76.35C21.8954 76.7645 21.6905 76.9727 21.4976 77.2083L21.5385 77.1573C21.0498 77.774 20.8561 78.4505 20.5826 79.4941L20.5337 79.6453C20.241 80.3722 19.9199 81.0667 19.6021 81.7406L19.2609 82.5024L18.4247 82.5029C18.2297 82.4991 18.0347 82.4952 17.8398 82.4909L19.0527 80.8085C19.144 81.1041 19.234 81.3978 19.3239 81.6938L19.8747 83.3462L18.1323 83.3467C17.9372 83.3415 17.7423 83.336 17.5473 83.3302L18.7233 81.699C18.8122 81.9954 18.8998 82.29 18.9871 82.5868L19.5171 84.1782L17.8398 84.1782C17.8105 84.1772 17.7812 84.1761 17.7519 84.1751C17.5862 84.1691 17.4205 84.1629 17.2548 84.1564L18.3814 82.5937C18.4677 82.891 18.5524 83.1865 18.6368 83.4843L19.1402 84.9954L17.5473 84.9955C17.3523 84.9867 17.1573 84.9774 16.9623 84.9677L18.0255 83.4931C18.1087 83.7914 18.1902 84.088 18.2714 84.3868L18.3907 84.7449L18.259 85.0991C18.041 85.5997 17.8079 86.0887 17.565 86.5683L17.617 86.4081C17.5231 86.7124 17.4333 87.0191 17.3475 87.327C17.3177 87.4379 17.0272 87.1723 16.9692 87.3956C16.3382 90.1056 16.964 89.6814 17.4942 91.4766C17.6285 91.9154 16.8841 93.287 16.8427 93.4232C16.658 93.8823 16.1368 93.4412 16.1044 93.5948C15.8787 94.8981 17.4792 94.5576 17.7207 96.145C17.7265 96.1962 17.3921 96.0344 17.3852 96.1752C17.3657 96.5737 17.529 96.9354 17.5548 97.3191L17.5604 97.3455C17.5626 97.3889 17.5631 97.4315 17.5617 97.4759C17.5711 98.3006 17.101 98.7377 16.997 99.3627L16.8163 99.0701C16.9712 99.1864 17.158 99.2896 17.396 99.3734L17.6777 99.5139L17.537 99.7964C17.4807 99.9567 17.4333 100.14 17.3967 100.353C17.3879 100.406 17.4481 100.455 17.5285 100.524L17.2455 99.675C17.3892 99.5071 17.6172 99.251 18.1381 99.3531L18.488 99.5277L18.6872 99.8678C18.8188 99.9982 18.9539 100.169 19.1121 100.476C19.2068 100.66 19.3592 100.976 19.5331 101.337C19.6458 101.567 19.7764 101.832 19.9102 102.106L19.9373 102.164C20.0382 102.401 20.1404 102.618 20.2621 102.955C20.3877 103.319 20.4328 103.577 20.4817 103.789L20.4969 103.861C20.522 104.042 20.5629 104.184 20.5128 104.057C20.4419 103.915 20.3807 103.886 20.4156 103.927C20.5667 104.106 20.6179 104.26 20.5278 104.296C20.4524 104.343 20.3166 104.33 20.3321 104.352C20.378 104.41 20.4242 104.468 20.4692 104.525L20.292 104.409C20.5086 104.579 20.6763 104.72 20.8073 104.841L21.0948 104.984L21.189 105.293C21.2071 106.196 20.9695 106.086 20.7043 106.693L20.7138 106.743L20.7646 106.743C20.8278 106.786 20.9008 106.832 20.9863 106.881C21.1317 106.963 21.2509 107.006 21.3496 107.019L21.0299 106.789C21.1349 107.312 21.8766 106.997 22.2175 107.118L22.1935 107.057C22.2401 107.067 22.2795 107.083 22.3103 107.112C22.5554 107.402 23.0675 108.584 23.3078 108.934C23.3442 109.003 23.354 109.049 23.3489 109.083C23.3441 109.132 23.3066 109.153 23.2678 109.17C23.2162 109.191 23.1642 109.207 23.1721 109.264C23.1762 109.289 23.1898 109.321 23.2184 109.363C23.3985 109.627 23.5509 109.82 23.6819 109.956C24.5427 110.665 24.4174 109.509 24.9621 109.657C25.3175 109.732 25.6309 109.85 25.9441 110.021L26.2679 110.25C26.4568 110.46 26.6179 110.687 26.7645 110.923L26.4944 110.729C26.6681 110.873 26.8346 111.026 26.9991 111.182L27.3164 111.34L27.4302 111.679C27.4396 112.001 27.4422 112.322 27.4631 112.644L27.7545 113.513L26.8407 113.412C26.5077 113.288 26.1784 113.166 25.8363 113.066C25.4151 112.936 25.7089 113.252 25.317 113.17C24.2631 112.925 23.6125 112.467 22.8045 112.054C22.6406 111.972 22.4596 111.889 22.264 111.808C22.0158 111.703 21.7508 111.598 21.4553 111.489C21.2112 111.409 19.8515 111.188 19.2845 110.401L19.5721 110.553C19.5083 110.507 19.4485 110.457 19.3937 110.401C19.2959 110.299 19.7133 110.169 19.1326 109.915C19.0454 109.877 18.9508 109.836 18.8501 109.794L18.653 109.672C18.4897 109.483 18.3019 109.273 18.1011 109.054L18.22 109.14C18.0339 109.037 17.8401 108.932 17.6443 108.828L17.5974 108.801C17.039 108.411 16.4719 108.019 16.0306 107.75C15.3845 107.352 15.8321 108.208 15.1438 107.53C14.8411 107.228 15.6131 107.506 15.0358 106.955C14.7416 106.673 14.1798 106.209 13.6288 105.753C13.1095 105.306 12.6085 104.97 12.2841 104.77C12.2024 104.718 12.1361 104.683 12.0774 104.656L12.0041 104.594C11.6614 104.316 11.692 104.714 11.6416 104.686C11.4713 104.587 11.1206 104.287 10.8079 103.983L10.8174 103.995C10.4954 103.697 10.1986 103.414 10.1563 103.365C9.30973 102.397 8.46739 101.478 7.56975 100.66L8.18784 100.891C7.99254 100.887 7.79757 100.882 7.60288 100.877L6.8803 100.879L6.70179 100.173C6.61386 99.7784 6.52797 99.3871 6.44242 98.994L7.3104 99.6718C7.11517 99.6659 6.92019 99.6597 6.72543 99.6534L6.17787 99.6551L5.93621 99.1579C5.85653 98.978 5.77708 98.7984 5.69781 98.6188C5.57527 98.3488 5.47018 98.1027 5.35331 97.9001C5.22858 97.6829 5.06162 97.4296 4.90272 97.1817L4.83947 97.0733C4.76036 96.8934 4.68129 96.7135 4.60222 96.5337C4.48499 96.272 4.38361 96.0307 4.27491 95.8481C4.1578 95.6503 3.98813 95.4114 3.82779 95.1786L3.79846 95.1358C3.14062 94.0462 2.67106 92.8308 2.32199 91.6488L2.24478 91.4074L2.35909 91.1768C2.45909 90.9831 2.55872 90.789 2.65795 90.5945L2.93664 91.4306C2.74267 91.3314 2.54826 91.2327 2.35335 91.1345L1.80052 90.8601L2.07633 90.3034C2.17429 90.1087 2.27181 89.9136 2.36887 89.7179L2.64586 90.5489C2.45086 90.452 2.25531 90.3556 2.05915 90.2597L1.78816 90.1252L1.72687 89.8247C1.60822 89.259 1.51983 88.6881 1.45143 88.1155C1.39404 87.6053 1.09546 87.9723 1.08331 87.8948C0.839357 86.1327 1.78473 87.4716 2.03668 86.2683C1.37438 86.4568 1.47279 85.7384 1.41712 84.5348C1.38919 83.9553 1.12723 84.2671 1.10151 84.2139C0.819877 83.5703 1.03252 83.0871 1.20073 82.8174C1.25833 82.7259 1.31123 82.658 1.33779 82.6189C1.57268 82.2716 1.49452 81.9043 1.45857 81.5836C1.4361 81.3817 1.43031 81.1985 1.52879 81.05C1.7822 80.6655 2.15172 81.5541 2.1517 80.4056C1.91577 80.0824 1.29067 80.9327 1.19471 80.0597C1.14541 79.6113 1.11282 79.11 1.09364 78.572L1.096 77.629L2.04571 77.6256C2.23631 77.6177 2.43153 77.6113 2.63068 77.6065L1.65942 78.5777C1.64133 77.8388 1.6434 77.046 1.65802 76.2358L1.65455 75.2666L2.63068 75.2631C2.82483 75.2666 3.01998 75.2708 3.21564 75.2757L2.30474 76.5391C2.21467 76.2445 2.12565 75.9483 2.03792 75.6523L1.62576 74.429L2.92316 74.4245C3.1186 74.431 3.31375 74.4379 3.50812 74.4452L2.59675 75.398C2.59486 75.121 2.59375 74.8456 2.59319 74.5732L2.593 74.4997C2.6328 74.1693 2.60202 73.7807 2.82613 73.2325C3.05205 72.7551 3.25224 72.5485 3.43583 72.285L3.34211 72.4785C3.44332 72.211 3.54102 71.9529 3.63489 71.7038C3.91559 70.9862 4.1534 70.3633 4.35879 69.8489C4.65606 68.919 5.40673 68.1011 5.8171 67.762L5.7918 67.7872C6.30478 67.253 6.55285 66.7679 6.89385 66.1567C6.98463 65.9923 7.07983 65.8229 7.18261 65.6436C7.23058 65.5599 7.27586 65.48 7.31859 65.4036C7.49435 65.0844 7.62727 64.8244 7.72696 64.6099C7.92629 64.1927 7.99736 63.9495 8.02572 63.7536C8.06251 63.4753 8.01338 63.2914 8.12169 62.8409C8.15709 62.6937 8.20924 62.5182 8.28672 62.3016C8.31455 62.2239 8.34246 62.1526 8.3704 62.0874L8.33989 62.1542C8.67121 61.0045 9.423 61.8737 9.71139 61.7368C10.0082 61.56 9.83269 61.2363 10.0214 60.9653C10.2095 60.6896 10.24 61.3767 10.4267 60.6732C10.4383 60.6282 10.4489 60.5778 10.4585 60.5228L10.4135 60.6586C10.5799 60.3018 10.7398 59.7997 10.9272 59.2711C11.1266 58.6783 11.2202 58.1196 11.1649 57.9547C10.9123 57.247 10.0871 57.798 10.9718 56.2241C11.0217 56.131 11.1631 56.5568 11.3408 56.1928C11.3566 56.1598 11.3723 56.1267 11.388 56.0934L11.3975 56.0706C11.78 55.3309 12.1656 54.5897 12.547 53.8455C12.6447 53.6512 12.7438 53.4524 12.8428 53.2533C13.0219 52.9039 13.1873 52.5612 13.3953 52.1961C13.5015 52.017 13.6261 51.8053 13.8453 51.6207C14.0672 51.4397 14.2677 51.3654 14.4409 51.2823L14.2218 51.5814C14.2735 51.3143 14.3252 51.0474 14.3771 50.7807C14.5414 49.8408 15.0591 48.982 15.5635 48.282L15.5369 48.3381C15.6556 48.0385 15.7743 47.74 15.8934 47.4428C16.0619 47.0222 16.2375 47.5067 16.3389 47.2625C16.4211 47.0644 16.4914 46.8861 16.5514 46.7251L16.5297 46.7699C16.8177 46.3744 16.989 46.0931 17.0874 45.8735L17.1097 45.8196C17.1224 45.4117 17.0088 45.2479 16.8696 45.0105C16.7725 44.7951 16.5292 44.5922 16.6679 43.8446C17.0209 44.3257 17.4959 44.1846 18.1237 43.6373L18.1596 43.567C18.4052 43.2014 18.6459 42.6744 18.8352 41.9811C19.1551 40.7348 18.7542 40.8692 18.6651 40.0327C18.6387 39.7853 18.9941 38.9406 18.8472 38.7609C18.3666 38.1806 17.7399 38.9425 18.1084 36.8874C18.124 36.7959 18.3989 37.1033 18.4315 36.7851C18.5153 35.9363 18.4509 35.3877 18.354 34.8853C18.2941 34.5701 18.2218 34.2742 18.1561 33.9297L18.1562 33.9441C18.0624 33.5055 17.9737 32.9928 17.9021 32.2643C17.8112 31.3215 17.7462 29.9678 17.5772 28.6081L17.5715 28.5755C17.4873 27.726 17.5207 26.88 17.5801 26.1523L18.0466 26.9318C17.8493 26.8196 17.6587 26.7128 17.4751 26.6121L16.4657 26.1113L17.2633 25.3075C17.3338 25.242 17.4025 25.1777 17.4691 25.1145C17.6757 25.3421 17.9593 25.3052 18.2458 25.1192L18.319 25.0454L18.4247 25.045C18.5972 25.0818 18.7984 25.091 19.0097 25.0768L19.1703 25.0762L19.2203 25.2305C19.2882 25.4016 19.3752 25.5746 19.4754 25.7389C19.6206 25.9738 19.7934 26.1918 19.9745 26.359C20.0408 26.4212 20.1078 26.4756 20.175 26.5216C20.2247 26.6862 20.2759 26.852 20.328 27.0189L20.3201 26.996C20.5269 27.592 20.8077 28.1848 21.1027 28.7777L21.1228 28.8199C21.3147 29.28 21.495 29.7367 21.6509 30.1813C21.7968 30.5974 21.4524 30.4295 21.4491 30.4913C21.4343 30.7222 21.4677 30.9146 21.5288 31.0774C21.6678 31.4272 21.9388 31.6362 22.1227 31.7952L22.1371 31.8317C22.2081 31.905 22.2647 31.9681 22.2901 32.0267C22.3484 32.1641 22.4048 32.3008 22.4596 32.4367L22.535 32.6546L22.431 32.8646C22.3427 33.0673 22.2529 33.2662 22.1619 33.4618L21.9021 32.6824C22.1019 32.7756 22.2983 32.87 22.492 32.9653L22.68 33.0586L22.7678 33.2536C23.4646 34.7571 23.7344 36.3454 23.8571 37.9178L23.8499 37.8551C23.8851 38.0276 23.9224 38.2005 23.9621 38.3739L23.6536 37.9587C23.8524 38.0451 24.054 38.1292 24.2591 38.2104L24.7381 38.4482L24.5695 38.9599C24.4985 39.2573 24.4337 39.5605 24.3766 39.8713L24.0136 38.9948C24.0342 39.0017 24.0548 39.0086 24.0755 39.0155C24.1514 39.0405 24.4103 38.7832 24.7522 38.9804L25.181 39.1933L25.3066 39.6622C25.3346 39.7975 25.3319 39.9726 25.2731 40.1944C25.2518 40.248 24.7749 39.3217 25.0552 40.7364C25.1782 41.4157 25.2164 42.3823 25.3025 43.3868C25.3415 43.7541 25.3872 44.1379 25.4418 44.5193C25.5422 45.2695 25.644 46.0093 25.7873 46.6684C25.8921 47.1281 26.4342 48.3208 26.0564 49.2879C26.0056 49.4158 25.8355 49.2769 25.741 49.4603C25.4381 50.0477 26.0314 50.3837 25.501 51.0625C25.0495 51.6382 24.6611 52.7289 24.6685 54.2428L25.1518 53.795C24.9628 53.8105 24.7677 53.8331 24.5669 53.8637L24.1983 53.8627L24.1536 54.2308C24.1563 54.3146 24.1603 54.3984 24.1655 54.4838C24.1678 54.5362 24.4561 54.8981 24.5069 55.3674C24.5171 55.4619 24.5173 55.561 24.5031 55.6626C24.4364 56.1395 24.3236 56.7127 24.1692 57.2805C24.0372 57.8644 23.949 58.4687 23.9102 58.9821C23.8755 59.4674 24.1906 59.1774 24.1896 59.2619C24.18 59.7525 24.1726 60.2235 24.1563 60.6826C24.147 60.9211 24.136 61.153 24.1233 61.3834C24.0915 61.9609 24.0507 62.5205 24.0033 63.0784L23.8301 62.7811C24.0218 62.8851 24.2128 62.9899 24.4041 63.0957L24.6628 63.2245L24.5337 63.4845C24.4286 63.6747 24.3225 63.8652 24.2152 64.0569L24.0986 63.7072C24.2874 63.8131 24.4773 63.9201 24.6693 64.0284L24.7357 64.0615L24.7703 64.1282C24.9472 64.5175 25.1222 64.9173 25.2994 65.3326L25.2679 65.2882C25.4494 65.4882 25.6351 65.692 25.8262 65.9003L25.6169 65.9497C25.7499 65.603 25.8526 65.2315 25.9076 64.834C25.9592 64.5159 25.8677 63.8974 25.7876 63.1958C25.7199 62.4959 25.7191 61.7183 25.905 61.1063C26.3367 59.7597 27.6172 61.249 27.5765 58.1628C27.5759 57.4419 27.049 56.5346 26.8395 55.4797L26.6142 55.6779C26.803 55.6145 26.9979 55.5611 27.1992 55.523L27.2916 55.5232L27.2693 55.4333C27.1081 55.0834 26.9941 54.6981 26.9611 54.2662L26.9067 54.3358C27.0966 54.3682 27.2915 54.4182 27.4917 54.4892L27.7008 54.4895L27.7011 54.2798C27.7216 54.222 27.7438 54.1637 27.7679 54.105C27.74 53.5734 27.7224 53.0465 27.7124 52.5233L27.4917 52.744C27.6872 52.7403 27.8821 52.7377 28.0767 52.7359L28.3713 52.7363L28.2784 52.4561C28.1779 52.1633 28.0801 51.8707 27.9842 51.5785L27.9767 51.731C28.2423 51.1213 28.5353 50.572 28.8708 50.0038C29.0796 49.6094 29.284 49.2236 29.4873 48.8372C29.5871 48.6552 29.6888 48.4691 29.7903 48.2828C30.2731 47.3922 30.7264 46.4623 31.0384 45.4651C31.1099 45.2519 31.1817 45.0058 31.2551 44.8862C31.2986 44.7907 31.5004 44.6863 31.709 44.5712L31.8102 44.5207L31.8462 44.4129C31.932 44.1178 32.0152 43.8203 32.0954 43.5203L32.0403 43.6094C32.16 43.4742 32.2792 43.3377 32.3979 43.1999C32.4376 43.1539 32.4737 43.0476 32.5141 42.9129L32.5274 42.8944C32.5211 42.6845 32.504 42.4113 32.5351 42.1666L32.5505 42.1401C32.5829 42.0139 32.627 41.8981 32.6912 41.805C33.0855 41.2222 33.5309 41.0573 33.8533 40.6898C33.8695 40.6714 33.8862 40.6525 33.9033 40.633C34.1149 40.3977 34.338 40.1735 34.4793 39.9081C34.6157 39.6405 34.675 39.3364 34.7511 39.0426L34.7549 39.0287L34.7652 39.0184C34.9562 38.8173 35.1445 38.6158 35.3316 38.4144L35.3121 38.446C35.3937 38.1675 35.4742 37.8897 35.5552 37.6123C35.7088 37.0263 35.9533 36.3962 36.2961 35.8829C36.3769 35.7452 36.454 35.6041 36.5254 35.459C36.8152 34.7887 36.9753 35.1068 37.1853 34.21C37.2136 34.0689 37.2296 33.9344 37.2392 33.8026L37.2354 33.8181C37.3097 33.5108 37.3486 33.2174 37.4098 32.9006L37.4161 32.8816L37.4361 32.8816C37.5318 32.869 37.6299 32.8576 37.7319 32.8486C37.8248 32.8404 37.9209 32.8342 38.0211 32.8309L37.9438 32.8959C37.9775 32.6539 38.0301 32.3915 38.1156 32.093C38.3703 31.1984 39.151 30.3542 39.3723 29.1108C38.7022 29.0025 38.8148 28.1567 38.6885 26.6452C38.662 26.3552 38.3991 26.655 38.3728 26.5177C38.2548 25.9618 38.4738 25.4547 38.3215 24.9287C38.2843 24.801 38.0211 24.7946 37.9737 24.6912C37.5554 23.8175 38.0638 22.3618 38.1681 22.0995C38.539 21.1147 38.111 20.6904 38.2137 19.942C38.3241 19.188 38.6642 20.2697 38.6968 19.3931C38.774 17.5981 38.4263 15.3314 38.0913 13.5367L38.0954 13.5589C38.0912 13.529 38.0876 13.5019 38.0836 13.4728C37.9964 12.7907 37.5267 13.3252 37.5019 13.2299C37.3987 12.7664 37.4492 12.2873 37.4699 11.8325C37.4699 11.8322 37.4699 11.8319 37.4699 11.8316L37.4726 11.8177L37.4512 11.8014C37.2567 11.69 37.0665 11.581 36.8786 11.484L36.9093 11.5582C37.0172 11.2461 37.0979 10.9443 37.1021 10.6468L37.124 10.6998C36.8748 10.6607 36.6205 10.6771 36.3506 10.7835L36.3441 10.7851L36.1177 10.221C36.059 10.1172 35.9847 10.014 35.8927 9.90957C36.9476 9.93838 37.448 9.88984 37.5864 9.73451L37.5311 9.76294L37.198 8.79659C37.0598 8.62617 36.7572 8.81883 36.352 9.02531L36.4378 9.28263C36.3055 9.02229 36.1668 8.71916 36.1324 8.39848L36.3454 9.03746C36.1261 9.06022 35.8987 9.03385 35.6781 8.90932L35.6713 8.91152L35.3828 8.02348C35.4431 7.91682 35.5266 7.81187 35.6404 7.71104C35.7598 7.58126 38.0064 8.46256 37.8987 9.136C37.8919 9.17919 37.8802 9.22148 37.8643 9.2631L36.9195 6.42875C37.1037 6.49936 37.2749 6.65161 37.4513 6.8278L38.3104 9.51313L38.3429 9.50272C38.1875 9.65813 38.0137 9.8176 37.8543 9.99024L37.0607 7.60934C37.225 7.7616 37.4013 7.9008 37.594 8.00533L38.3074 10.075L38.4259 10.0141C38.3735 10.1555 38.3383 10.3014 38.3257 10.4528C38.3193 10.5261 38.4173 10.7537 38.531 11.0247L37.489 8.50884C37.7571 8.43816 38.0643 8.35999 38.323 8.30405L39.924 11.2868L39.6438 11.4933C39.7459 11.7675 39.8169 11.9883 39.8126 12.0483C39.799 12.2217 39.7535 12.3647 39.6871 12.4833L38.1889 8.86577C38.421 9.04388 38.5279 9.30157 38.5644 9.57708L40.1552 10.792L39.9572 11.8316C39.9568 11.8319 39.9563 11.8322 39.9559 11.8325C39.4632 12.1643 38.7285 12.245 38.6612 12.2853C38.0964 12.6717 38.0919 13.0508 38.3294 13.5201L38.3235 13.4884C38.6057 14.0149 39.0627 14.4776 39.1367 14.6846C39.7659 16.4503 39.6486 18.0603 39.9603 19.5807C40.155 20.5774 41.1177 20.607 41.0649 21.4248C40.8367 24.1536 39.6921 25.0343 40.4055 27.5695C40.5438 28.1147 41.4327 27.6447 40.5328 29.5257C40.4733 29.6481 39.7195 31.0002 39.933 31.8626C39.9599 31.9717 40.1816 32.001 40.1774 32.1399C40.1625 32.5594 40.0955 32.9082 40.0183 33.2564L39.7128 34.9477L38.0211 34.9365C37.9252 34.9318 37.8293 34.9266 37.7319 34.9219C37.6352 34.9173 37.537 34.9132 37.4361 34.9105L39.3347 33.5416C39.2531 33.7665 39.175 34.0078 39.1081 34.2883C39.0969 34.3352 39.0857 34.3825 39.0743 34.4305L39.1537 34.1047C39.1258 34.811 38.8924 36.1475 38.3095 37.0719L38.2931 37.0994C38.1595 37.3206 38.0168 37.5442 37.9697 37.6035C37.9236 37.6247 37.6817 37.9577 37.4548 38.2449C37.2402 38.5147 37.0353 38.742 36.94 38.873C36.9173 38.9038 36.8958 38.935 36.8754 38.9666L36.4972 39.579C36.252 39.7242 36.0503 39.919 35.8693 40.1216L36.2567 39.4542C36.1889 39.7436 36.18 40.0187 35.9874 40.4846C35.7677 40.98 35.4904 41.2317 35.2829 41.3072C34.7399 41.4933 34.8719 40.6995 34.2903 40.9664L34.2975 40.958C34.1745 41.0173 34.0206 41.1231 33.8273 41.2975C34.2423 41.7018 34.633 42.1621 35.056 42.5645C34.8964 42.7671 34.6806 43.0897 34.4581 43.4107L34.5855 43.1909C34.4847 43.3846 34.3834 43.5779 34.2818 43.7708L33.9015 44.299C33.7022 44.4902 33.5026 44.6807 33.3028 44.8707L33.7885 44.0841C33.6835 44.3746 33.578 44.6646 33.4723 44.9545L33.211 45.7369L32.476 46.104C32.3713 46.1523 32.2687 46.2018 32.2716 46.1973C32.2534 46.2109 32.5129 46.0315 32.6378 45.826C32.7532 45.6379 32.7204 45.6524 32.6975 45.7163C32.6695 45.7824 32.6299 45.8881 32.5889 45.9982L32.5968 45.9746C32.2129 47.0656 31.7057 48.083 31.2148 49.0134C31.1126 49.206 31.0138 49.3936 30.9155 49.5817L30.9298 49.5536C30.7826 49.8473 30.6363 50.1421 30.491 50.4383C30.3286 50.7704 30.7017 50.6064 30.6267 50.8762L30.5882 50.9493C30.58 50.9748 30.5678 51.0036 30.5515 51.0354C30.2257 51.6561 30.0736 51.9309 29.7806 52.5363L29.8585 50.9543C29.9444 51.2513 30.0279 51.5476 30.1132 51.8451L31.051 54.6737L28.0767 54.6698C27.8826 54.6615 27.6878 54.6538 27.4917 54.6474L29.6158 52.5233C29.5973 53.0909 29.5901 53.6702 29.6144 54.2798L29.6112 56.4056L27.4917 56.4025C27.443 56.4044 27.3941 56.4065 27.345 56.4089C27.2002 56.416 27.0541 56.4256 26.9067 56.4373L28.9999 53.757C29.1261 54.1328 29.2689 54.5132 29.4179 54.8966L30.124 57.7422L27.1992 57.7377C27.0051 57.7622 26.8099 57.788 26.6142 57.814L28.9583 55.7512C28.9621 56.5392 28.9707 57.326 28.9301 58.0757C28.164 58.9029 28.183 61.0958 28.1311 62.6154C28.1184 62.9224 28.0573 63.0417 27.9959 63.1605L27.9955 63.1411C27.9509 63.2353 27.9069 63.3277 27.8865 63.5092C27.8008 64.3247 27.8636 64.6402 27.9926 64.7237C28.1179 64.8191 28.2987 64.7261 28.3186 65.0243C28.3591 65.7641 28.1754 66.3336 27.946 66.7254L26.7463 70.3048L24.0896 67.6354C23.9398 67.3658 23.8578 67.0858 23.7655 66.7892L23.3882 66.2585C23.4065 65.8642 23.4147 65.4357 23.2476 64.9135L23.9026 65.5606C23.7418 65.4446 23.5569 65.3311 23.3405 65.222L22.0585 64.5768L22.6999 63.3C22.7143 63.2713 22.7287 63.2421 22.7429 63.2123C22.762 63.173 22.7708 62.9173 22.7769 62.6069L23.5253 64.8518C23.2917 64.8471 23.0271 64.8438 22.8004 64.8387L21.6356 64.2525L21.7055 62.9595C21.6088 62.7241 21.5334 62.5312 21.5221 62.4683C21.2946 61.237 21.7804 62.2803 21.8727 61.5218C21.8835 61.4337 21.8945 61.3474 21.9056 61.2625C21.9375 61.02 21.9702 60.7911 22.0014 60.5659C22.1326 59.6396 22.2056 58.769 22.2423 57.3851C22.2461 57.2686 22.2385 57.114 22.2329 56.9309L22.2496 56.8483C22.2271 56.3943 22.1412 55.7323 22.3812 55.1154C22.4062 55.0495 22.4348 54.9845 22.4673 54.9214C22.5263 54.8068 22.7543 54.9007 22.7794 54.8059C22.8498 54.5267 22.8896 54.2901 22.9064 54.083L23.0857 52.6038L24.5669 52.6077C24.7987 52.5991 24.9884 52.5662 25.1518 52.5178L23.395 54.1455C23.2639 53.5495 22.9027 53.2805 22.7752 52.6291C22.5857 51.6397 23.1397 50.1807 23.2867 49.8757C23.6776 49.0849 23.4466 50.4869 23.4787 50.5317C23.9145 51.0544 23.8728 49.9495 23.9 49.1127C24.6385 48.9865 24.5603 47.7944 23.9185 48.2454C23.8499 48.2954 23.9336 48.9437 23.9 49.1127C23.172 48.3764 23.0471 47.1729 23.5598 45.7171C23.7327 45.2149 24.0189 45.3839 23.9979 44.7342L23.9995 44.7445C23.9868 44.5013 23.9318 44.148 23.8124 43.6116L23.8098 43.5937C23.8081 43.5856 23.8065 43.5774 23.8048 43.5692C23.6145 42.623 23.1623 43.048 22.9131 42.2583C22.7185 41.6526 22.5979 41.0173 22.4607 40.4149L23.4348 41.6129C23.2441 41.5105 23.0531 41.4042 22.8621 41.2957L21.4263 40.5715L21.9355 39.0584C22.0481 38.7716 22.165 38.4843 22.2819 38.1981L23.18 40.3666C22.9907 40.2556 22.802 40.1448 22.6142 40.0356L21.8201 39.635L21.6734 38.7692C21.6541 38.5918 21.6342 38.4157 21.6131 38.2414L21.5908 38.0459C21.5909 37.575 21.5563 37.1314 21.4695 36.7316C21.3311 36.1376 21.1673 36.7682 21.0588 36.3771C20.8509 35.6716 20.7054 35.0088 20.4134 34.3038L21.3383 35.2707C21.1477 35.1699 20.9536 35.0718 20.753 34.9786L18.9749 34.0813L19.8649 32.3143C19.9356 32.162 20.0034 32.006 20.0675 31.8451C20.1073 31.7441 19.7841 31.8416 19.8622 31.5814L19.7431 33.3673C19.7306 33.3444 19.7183 33.3167 19.7064 33.2832C19.6402 33.0979 19.5753 32.9139 19.5117 32.731L19.5865 32.9214C19.4621 32.6448 19.3408 32.3704 19.222 32.0976L19.2038 32.0555C18.9203 31.3676 18.648 30.6922 18.3748 30.018L18.4396 30.1541C18.1218 29.5024 17.7994 28.7789 17.5384 27.9991L17.5142 27.9285C17.4454 27.6947 17.3759 27.4597 17.3053 27.223C17.2358 26.9913 17.1638 26.7535 17.0903 26.5137L17.0871 26.5037C17.0335 26.3256 16.9791 26.1464 16.9237 25.9659L19.0097 27.4882C18.8164 27.4858 18.6215 27.484 18.4247 27.4827L19.9703 26.8421C19.8295 26.9812 19.6879 27.1221 19.5452 27.265C19.4934 27.3169 19.4399 27.3711 19.3849 27.4272L18.8173 23.9302C18.9997 24.0193 19.1977 24.1137 19.4076 24.2122L20.6643 24.8467L20.62 26.2383C20.6188 26.85 20.668 27.4698 20.7923 28.0632L20.7792 27.9884C21.0253 29.0591 21.2075 30.1464 21.2761 30.9632C21.357 31.8932 21.3655 32.8966 21.3177 33.9011L21.3179 33.934C21.2969 34.2521 21.2749 34.5694 21.2528 34.8882C21.1376 36.7245 20.9065 38.5885 20.724 40.0995C20.4988 41.787 20.8371 41.4845 20.8664 42.2662C20.8782 42.8955 20.6175 43.6723 20.2641 44.3487L19.9922 44.8818C19.7438 45.1493 19.4649 45.4714 19.4847 45.2778C19.4833 45.0374 19.3202 45.3446 19.2439 45.485C19.2031 45.5593 19.1715 45.6141 19.1525 45.6457C19.1512 45.6477 19.1609 45.5745 19.1725 45.4707C19.239 44.9945 19.1445 45.1259 19.0305 45.0899C18.8611 45.1394 18.8698 45.3148 18.9371 45.4237C19.0115 45.5528 19.1533 45.6377 19.1525 45.6457C19.1242 45.693 19.0643 45.9021 18.99 46.1953L18.6833 46.9364C18.5072 47.1736 18.2881 47.4798 18.0683 47.7947L18.3091 47.2977C18.0591 48.0131 17.808 48.7555 17.7508 49.014C17.7448 49.0415 17.7423 49.0658 17.7427 49.0874L17.5395 49.5158C17.4999 49.71 17.7616 49.7373 17.702 49.8528C17.3138 50.601 17.3008 50.7476 17.243 51.271L17.2486 51.2371C17.2196 51.5075 17.1896 51.7779 17.1584 52.0482L16.9448 53.3598L15.7716 53.9414C15.5899 54.0315 15.54 54.1128 15.8308 53.8911C16.1054 53.6479 16.1229 53.5502 16.0858 53.6445C16.0038 53.8219 15.8352 54.214 15.6846 54.5583L15.6948 54.5358C15.6078 54.7399 15.52 54.9438 15.4315 55.1474L15.422 55.1682C15.0869 55.9216 14.7491 56.6597 14.4195 57.3882L14.4582 57.2947C14.1775 57.9879 13.8515 58.695 13.4717 59.3842C13.4332 59.4465 13.1928 59.2006 13.1065 59.3469C12.9187 59.6613 12.7429 59.9583 12.5773 60.2424C12.2697 60.7606 12.2145 60.9499 12.0325 61.4535L12.2321 60.8506C12.18 61.6352 12.1412 62.5778 11.8411 63.6151L11.7672 63.777C11.7159 63.9417 11.6626 64.1085 11.606 64.2782C11.5774 64.3637 11.5486 64.4479 11.5194 64.5309C11.4193 64.8153 11.315 65.0853 11.2057 65.3403L11.1968 65.3582C11.0718 65.6444 10.9406 65.9117 10.8019 66.1595L10.8152 66.1329C10.6635 66.4106 10.5024 66.6642 10.33 66.8931L10.3214 66.9103C10.1308 67.1599 9.92682 67.3795 9.70736 67.5684C9.60622 67.6588 9.49932 67.7473 9.38628 67.8322C9.14316 68.3791 8.62472 69.2138 7.94918 69.8365L7.85843 69.9269C7.68097 70.07 7.51811 70.196 7.42863 70.2589C7.33675 70.3256 7.32642 70.3029 7.27638 70.3348C7.17788 70.3944 6.99242 70.7057 6.85788 70.9486C6.37731 71.8432 6.93655 72.2286 6.91937 72.3135C6.88964 72.4705 6.85962 72.6218 6.82616 72.7766L6.83658 72.7452C6.78 73.0284 6.72049 73.2969 6.65719 73.5569L6.3372 74.2175C6.17099 74.4934 5.98846 74.8907 6.16696 74.5201C6.24045 74.3274 6.24437 74.1927 6.23886 74.2707C6.23383 74.3338 6.22583 74.4861 6.21675 74.6417L6.21615 74.4123C6.22298 74.6877 6.22538 74.9612 6.22524 75.2369L6.34151 78.0875L3.50812 78.0773C3.3146 78.0686 3.12009 78.0586 2.92316 78.0479L5.47574 74.5074C5.5554 74.7984 5.63528 75.0952 5.71902 75.402L6.86618 78.887L3.21564 78.8743C3.02488 78.8638 2.83027 78.8535 2.63068 78.8438L5.23869 76.2358C5.21511 76.7216 5.19534 77.2369 5.18611 77.7975C5.18218 78.026 5.18133 78.2895 5.18299 78.5777L5.17391 81.139L2.63068 81.13C2.44496 81.1311 2.24904 81.1332 2.04571 81.1362L4.60415 78.5932C4.61227 79.5286 4.63965 80.6209 4.67259 81.5943C4.68786 82.0397 4.70378 82.4616 4.71904 82.8321C4.72337 82.9574 4.72741 83.0699 4.73124 83.176C4.77785 84.4534 4.60396 85.1809 4.72409 86.2449C4.74065 86.3874 5.02857 86.2369 5.04086 86.2801C5.42942 87.4147 4.70114 86.8902 4.58396 87.1363C4.24722 87.863 4.04893 88.392 4.28291 89.312L3.22586 87.9283C3.40791 88.0079 3.61034 88.0871 3.83779 88.1672L5.66706 89.0902L4.75143 90.9081C4.74011 90.9403 4.72878 90.973 4.71743 91.0062C4.67759 91.1224 4.69468 91.3504 4.72799 91.628L3.6799 88.4838C3.91643 88.4555 4.18891 88.4156 4.45875 88.3891L6.94495 89.6434L5.70053 92.1144C5.72633 92.3751 5.73956 92.6334 5.71734 92.8544L5.9011 90.5164C5.97157 90.5987 6.02699 90.6777 6.06193 90.7554C6.38151 91.4381 5.93449 91.3129 6.29971 91.9501C6.33253 92.0012 6.53021 91.9038 6.70808 92.2808C6.82812 92.5283 6.96139 92.7755 7.11505 93.0329L6.9837 92.8414C7.15135 93.0816 7.29961 93.2738 7.57808 93.7073C7.71867 93.9282 7.86088 94.195 7.94361 94.3669C8.03042 94.5455 8.08964 94.6771 8.15049 94.8098L8.15541 94.8199C8.23618 94.9985 8.31715 95.1775 8.39835 95.3568L8.14721 94.9266C8.31384 95.1817 8.46453 95.3978 8.71056 95.7968C8.98846 96.2533 9.14643 96.6201 9.26642 96.8705L9.2771 96.8924C9.35912 97.0709 9.44141 97.2493 9.52401 97.4274L6.72543 95.6701C6.92056 95.6731 7.11558 95.6757 7.3104 95.6778L9.74009 95.6851L10.3174 98.0261C10.4111 98.4197 10.5059 98.8092 10.6033 99.1987L7.60288 96.8555C7.79839 96.8555 7.99342 96.8547 8.18784 96.8533L9.35263 96.8567L10.2164 97.6109C10.2891 97.6732 10.3612 97.7356 10.4327 97.7981C10.7643 98.093 10.5863 97.4382 11.0695 97.8675C12.2234 98.906 13.257 100.06 14.1724 101.179L14.2099 101.224C14.4225 101.495 14.6333 101.753 14.8422 101.996L14.1688 101.427C14.6097 101.713 15.6244 102.468 15.9936 102.838C16.1619 102.991 16.3297 103.143 16.4948 103.294C16.9328 103.694 16.4823 103.667 16.5363 103.806C16.8775 104.664 18.1781 104.788 18.3294 104.878C18.7916 105.161 19.2341 105.435 19.6645 105.703L19.3111 105.498C19.5106 105.591 19.7076 105.684 19.9024 105.778L20.7604 106.397C20.9601 106.591 21.156 106.785 21.3488 106.979L20.0562 106.18C20.3509 106.279 20.642 106.379 20.9306 106.481L21.8833 106.985C22.5806 107.538 23.2388 108.006 23.9852 108.426L23.9653 108.416C24.1412 108.512 24.3176 108.607 24.4948 108.703L24.5384 108.725C25.5492 109.296 26.3231 109.62 27.2646 109.669L23.8894 113.834C23.7818 113.549 23.6702 113.262 23.5526 112.97L25.1701 114.837C25.1494 114.828 25.1287 114.819 25.108 114.81C25.0392 114.781 24.8151 114.742 24.5188 114.676L23.6416 114.044C23.4307 113.918 23.1801 113.761 22.9343 113.58L23.9211 114.277C23.264 114.083 22.2768 113.533 21.9489 112.892C21.9302 112.857 21.8093 112.631 21.6328 112.349L21.4595 112.189C21.37 111.956 21.2199 111.676 20.9732 111.476L20.9934 111.496C20.8584 111.386 20.6961 111.287 20.497 111.205C20.4658 111.192 20.5124 111.368 20.4645 111.435C20.4129 111.493 20.2873 111.496 19.8293 110.953C19.3977 110.448 18.7638 109.576 18.4014 108.761L18.2793 108.45C18.2032 108.237 18.129 108.018 18.062 107.793L21.3496 110.152C21.1551 110.145 20.9594 110.132 20.7646 110.111L17.9288 110.107L17.3969 107.333C17.3847 107.185 17.3762 107.033 17.3885 106.966C17.4028 106.909 17.4312 106.889 17.4327 106.755C17.4358 106.681 17.4499 106.566 17.4631 106.421L19.0651 108.322C18.9368 108.175 18.7789 107.998 18.5806 107.828L18.0086 107.452C17.9493 107.371 17.8808 107.286 17.7821 107.181C17.6801 107.069 17.5554 106.964 17.284 106.661C17.0107 106.389 16.5936 105.636 16.4982 105.267C16.3773 104.887 16.3403 104.761 16.2745 104.633L16.3074 104.789C16.2634 104.714 16.2145 104.639 16.1631 104.58C16.1523 104.573 16.0245 104.437 15.9299 104.509C15.8494 104.6 15.6252 104.402 15.4117 104.157L15.4824 104.308C15.2718 104.087 15.0847 103.84 14.9869 103.589L14.9773 103.569C14.8943 103.353 14.8803 103.141 14.9796 102.957C15.014 102.897 15.1866 102.802 15.2941 102.652C15.3986 102.497 15.4705 102.349 15.1445 101.937L16.3019 103.022C16.1769 102.981 16.0292 102.944 15.8551 102.913C15.6226 102.872 15.8185 103.12 15.5311 103.101L12.6716 101.666L14.1014 98.8118C14.106 98.7421 14.1264 98.644 14.1703 98.5045C14.2046 98.3956 14.244 98.2851 14.2876 98.1732L15.7704 102.622C15.5747 102.545 15.3745 102.456 15.1696 102.361L13.3153 101.43L13.3175 99.3627C13.3096 99.0815 13.3092 98.7562 13.2981 98.5683C13.2918 98.47 13.2878 98.4985 13.2822 98.5011C13.276 98.4981 13.2416 98.3633 13.1981 98.2125L13.2165 98.299C13.0815 97.8514 12.9342 97.4043 12.7521 96.9698C12.6365 96.713 11.8869 95.5767 12.2492 94.5759C12.3058 94.4218 12.606 94.681 12.6021 94.1809C12.5935 91.8144 12.5501 89.3383 13.1551 87.0263C13.3747 86.2131 13.7389 86.7173 14.0354 85.9027C14.069 85.8128 14.1052 85.7128 14.1434 85.605L14.2821 85.1777C14.4956 84.8153 14.7427 84.3318 14.9228 83.8576L14.8941 85.5116C14.7925 85.1994 14.6797 84.9005 14.5594 84.6474L13.4498 81.314L16.9623 81.3145C17.1031 81.2972 17.2333 81.2743 17.3484 81.245C17.4307 81.2241 17.4957 81.1979 17.5473 81.1676L15.005 84.6938C14.6062 84.3447 14.2402 85.0977 13.8458 84.1042L12.2713 79.3757L17.2548 79.3759C17.2632 79.3754 17.2717 79.375 17.2803 79.3746C17.4375 79.3671 17.5947 79.3603 17.7519 79.354C17.7812 79.3528 17.8105 79.3516 17.8398 79.3505L14.4067 84.1122C14.2976 83.8225 14.1913 83.5341 14.0863 83.2433L12.4881 78.4419L17.5473 78.4428C17.7423 78.4378 17.9373 78.4337 18.1323 78.4303L14.6594 83.2472C14.5566 82.9554 14.4562 82.6651 14.3567 82.3724L12.7493 77.5392L17.8398 77.5413C18.0348 77.5401 18.2298 77.5396 18.4247 77.5397L15.0737 79.7092C15.376 79.0365 15.6607 78.4167 15.905 77.8334L15.77 78.2505C15.9903 77.4192 16.5365 75.4833 17.6403 74.1899L17.7488 74.0543C17.9472 73.8412 18.1527 73.5867 18.0413 73.762C17.9477 73.9556 18.1053 73.6734 18.2302 73.4093L18.1181 73.6949C18.1991 73.4842 18.2801 73.2734 18.361 73.0626L22.4876 61.0419L25.0391 73.4878C25.1249 73.9947 25.2066 74.4972 25.2874 74.9949L25.3266 75.2436C25.3672 75.7336 25.4017 76.0943 25.3823 76.0203C25.3702 75.9438 25.1611 75.6041 25.1447 75.6244L24.9454 75.4262C25.0831 75.5569 25.2211 75.6873 25.3594 75.8175L26.4509 76.82L26.4471 78.285C26.4468 78.3091 26.4464 78.3332 26.4461 78.3573C26.4373 78.9949 26.6052 78.6901 26.6712 79.1632L25.0841 76.1964C25.1863 76.2457 25.3218 76.3242 25.5076 76.4478C25.6594 76.5486 25.8161 76.6523 25.9772 76.7585L27.0094 77.4515L27.3925 78.6129C27.4666 78.8361 27.5826 79.1561 27.5495 79.0603C27.5312 79.0047 27.419 78.8095 27.4255 78.8232C27.4277 78.8253 27.5082 78.9336 27.5933 79.0456L27.5118 78.9398C27.6674 79.1385 27.8231 79.2915 28.1799 79.8225C28.5334 80.3828 28.6252 80.623 28.7478 80.8535L28.7855 80.9322C28.8656 81.1008 28.9464 81.2709 29.0277 81.4424L25.7368 79.3412C25.9304 79.3395 26.1255 79.338 26.3218 79.3366L28.9972 79.3459L29.7858 81.876C29.8674 82.1308 29.9375 82.3374 29.9395 82.3302C29.9557 82.3706 30.0821 82.6366 30.1936 82.8689L28.4933 81.1568C28.7939 81.3354 29.167 81.3528 30.2717 82.2272C31.331 83.196 31.5362 83.8621 31.7688 84.2656L31.7959 84.3197C31.934 84.6099 32.0703 84.8989 32.2041 85.1856L29.8592 83.272C30.1636 83.3769 30.3079 83.3249 31.351 83.7979C31.8866 84.0604 32.3579 84.4711 32.5409 84.6551C32.7452 84.8562 32.8347 84.9604 32.9279 85.0625L32.9468 85.0823C33.9149 86.1821 34.8103 87.1538 35.4746 87.9564C35.9239 88.4983 36.0935 88.7696 36.1052 88.9042L31.3084 91.616C31.3504 91.5464 31.4013 91.5513 31.4555 91.5932L36.0098 89.0186C35.7588 89.0574 35.1348 88.7279 35.7207 89.3651L31.9015 91.5242C31.8971 91.4217 31.8899 91.3008 31.8804 91.158C31.7897 89.9704 30.9236 88.6572 30.8998 88.3383C30.8373 87.7052 30.8299 87.1108 30.8565 86.5515L30.8585 86.5222C30.8717 86.2824 30.8886 86.0499 30.9082 85.8201L30.9067 85.8431C30.9743 84.9791 31.0817 84.1727 31.1718 83.343L31.3881 80.4826L34.2188 80.5001C34.4123 80.5077 34.607 80.5141 34.8038 80.5185L31.8584 84.2901C31.772 83.9083 31.676 83.5202 31.5623 83.12L30.6384 79.3193L34.5113 79.3438C34.5739 79.3418 34.6368 79.3395 34.7002 79.3368C35.1724 79.3167 34.7276 78.9973 35.0962 78.9719L31.8595 83.4614C31.8566 83.4543 31.8538 83.447 31.851 83.4394C31.747 83.1601 31.6507 82.8748 31.5592 82.5857L30.0825 78.0552L34.8038 78.0854C34.9984 78.0883 35.1936 78.0935 35.3887 78.1L32.0461 80.8556C32.0919 80.663 32.1371 80.4367 32.2389 80.0703C32.3358 79.7354 32.4001 79.5677 32.4663 79.372L32.8882 78.4739C33.0981 78.1852 33.304 77.8984 33.499 77.6129L33.0584 78.5819C33.0951 78.454 33.1314 78.3158 33.1688 78.1654C33.3316 77.5316 33.0405 77.5915 33.3162 76.8327C33.5713 76.1471 33.9854 75.3602 34.5051 74.7255L34.547 74.6697C34.7033 74.4975 34.8609 74.3286 35.021 74.1618L34.381 75.5831C34.4513 75.3981 34.517 75.1547 34.6663 74.6722C34.8072 74.2046 35.1232 73.4361 35.5749 72.8734C35.6628 72.7595 35.5027 73.1492 35.505 73.3226C35.5121 73.5195 35.601 73.3319 36.2552 72.5406C36.3017 72.4873 36.3456 72.4392 36.3923 72.3896L36.5584 72.2239C36.7038 72.0964 36.8551 71.9673 37.0109 71.8364L36.2495 73.0116C36.3566 72.7313 36.4704 72.4429 36.5861 72.148L37.2487 71.075C37.4507 70.893 37.6561 70.7074 37.862 70.5178L37.209 71.5752C37.3177 71.2892 37.4246 70.9987 37.526 70.7051L38.1728 69.6578C38.3342 69.5019 38.5404 69.2864 38.4973 69.3221C38.4707 69.3449 38.3877 69.4675 38.3999 69.4385C38.4055 69.417 38.4509 69.3115 38.4954 69.2024L38.4635 69.2685C38.5336 69.0886 38.5847 68.9227 38.7248 68.6082C39.0674 67.9062 39 67.6304 39.193 67.2795C39.286 67.1221 39.4378 66.9562 39.709 66.7627L39.5834 66.9376C39.6144 66.912 39.6471 66.8859 39.6816 66.8592C39.8651 66.7172 40.194 67.2148 40.4598 66.2535L40.5539 66.1211C40.5878 66.0206 40.6218 65.9033 40.6556 65.7666C40.6801 65.6689 40.8215 65.2253 41.049 64.7003L40.7617 65.1682C40.8118 64.9632 40.8719 64.7453 40.9429 64.527L41.5554 63.6765C41.7204 63.4532 41.9007 63.2344 42.0909 63.0415L41.4121 64.0219C41.5072 63.8087 41.6161 63.6109 41.7401 63.4426L41.7056 63.5213C41.7828 63.411 41.8691 63.2912 42.0379 63.0595C42.1311 62.9401 42.2546 62.7455 42.6097 62.3712C42.9491 61.991 43.6639 61.5522 44.0845 61.4581C44.9181 61.2606 45.0866 61.4063 45.3789 61.3914L48.0006 60.8614L48.4762 63.4458C48.4699 63.6048 48.4852 63.7655 48.5208 63.8377C48.5425 63.8707 48.7958 63.6652 48.8755 63.8748C48.9077 63.9644 48.9603 64.1173 49.01 64.2638L47.8295 62.6753C48.1239 62.8752 48.4343 62.9888 49.1371 63.6477C49.7939 64.3367 49.9171 64.6333 50.1349 64.9275L50.4836 65.6391C50.7461 66.3936 50.6366 66.1335 51.0255 66.8336L50.984 66.7603C51.1701 67.0669 51.3566 67.3702 51.5468 67.673C51.6109 67.7758 51.6714 67.8714 51.7324 67.9664C52.0054 68.3894 51.8891 67.59 52.2872 68.2226C52.4845 68.5346 52.6874 68.8613 52.8942 69.1966L52.6923 68.9037C53.2092 69.4746 54.2208 71.2433 54.4224 72.2275L54.4785 72.4256C54.5486 72.7475 54.617 73.0684 54.6832 73.3853L51.4753 70.88C51.6721 70.8876 51.8673 70.8956 52.0602 70.9039L55.3759 70.9377L55.3428 74.1865C55.3255 74.5887 55.3068 74.981 55.2876 75.3575L53.5046 72.4714C53.6092 72.5306 53.7123 72.5891 53.8138 72.6469C53.9337 72.7153 54.0135 72.7706 54.0638 72.8156L55.5525 73.58L55.7787 75.172C55.7495 75.4272 55.5959 75.2487 55.5361 75.209L55.3275 73.7403L53.954 73.035C53.9404 73.0403 53.9337 73.0457 53.939 73.0525C53.9402 73.0542 53.9415 73.0558 53.9428 73.0575L55.3045 73.7566L55.5113 75.2128C55.43 75.4776 55.4216 75.7026 55.4532 75.8957L55.4802 76.1537C55.5147 76.6745 55.8358 76.96 55.8718 77.1476C55.9407 77.52 55.9905 77.8311 56.0351 78.1049L54.3399 75.7758C54.5393 75.8739 54.7323 75.9742 54.9212 76.0759L56.7235 77.002L56.6463 78.9603C56.6052 79.6043 56.5664 80.1065 56.6344 80.644L56.621 80.5666C56.6718 80.8728 56.7245 81.1836 56.7831 81.5026C56.8751 82.0188 57.0914 81.6116 57.1299 81.7116C57.5013 82.7619 56.9199 82.0219 56.9442 82.7058C56.9955 84.4876 57.0439 86.3931 57.0491 88.1022L57.0491 88.1148C57.0491 88.2356 57.0493 88.3556 57.0495 88.4745C57.0514 89.1138 57.3717 88.3983 57.3695 88.9708C57.3688 89.3776 57.3675 89.784 57.3665 90.1893C57.3621 92.15 57.3666 94.3123 57.0427 96.5459L57.0331 96.6225C56.9137 97.2938 56.8045 97.9565 56.7081 98.6086L56.7106 98.5794C56.6713 98.8738 56.6312 99.1658 56.5902 99.4563C56.5895 99.4611 56.5888 99.4659 56.5881 99.4708C56.4984 100.074 56.3096 99.6702 56.2463 99.7953C56.1587 99.9661 56.1031 100.156 56.0703 100.353C56.0339 100.571 56.0263 100.802 56.0347 101.026L55.8194 103.374L53.5226 103.346C53.3156 103.371 53.1164 103.408 52.9377 103.448L55.5512 101.027C55.5975 101.355 55.6549 101.616 55.6625 101.731C55.7548 103.118 55.5113 103.639 55.4407 104.847L55.2067 107.468L52.6452 107.436C52.6403 107.436 52.6355 107.436 52.6306 107.436C52.4419 107.44 52.2517 107.443 52.0602 107.446L54.8745 104.632C54.8853 105.301 54.892 105.985 54.8953 106.681L54.8595 109.551L52.0602 109.516C51.8661 109.517 51.6711 109.518 51.4753 109.518L54.3085 106.533C54.3199 106.884 54.3679 107.129 54.3271 107.886C54.3034 108.277 54.184 108.77 54.0982 109.021C54.0105 109.289 53.9481 109.447 53.8886 109.608L53.873 109.649C53.5587 110.451 53.2435 111.247 52.942 112.037L53.047 111.678C52.9473 112.104 52.834 112.552 52.6934 113.017L52.3294 114.221L51.2614 114.738C51.0647 114.833 50.868 114.927 50.6715 115.021L52.2066 112.536C52.198 113.026 52.1888 113.514 52.179 114L49.4279 111.249C49.5925 111.252 49.7519 111.256 49.8683 111.257C49.9769 111.262 50.066 111.244 49.8672 111.281C49.6657 111.299 49.1454 111.587 49.1314 111.632C49.0789 111.683 49.2002 111.578 49.3142 111.47L49.2544 111.53C49.4487 111.339 49.6422 111.148 49.8346 110.958L50.6626 110.124L51.7677 110.139C52.0622 110.146 52.3548 110.153 52.6452 110.16L50.4235 111.349C50.6276 111.058 50.8298 110.77 51.03 110.485L51.5621 109.709L52.3935 109.443C52.9963 109.258 53.5873 109.078 54.1631 108.902L52.6616 110.205C52.765 110.01 52.8674 109.817 52.9687 109.626L53.3103 109.109C53.4594 108.949 53.5489 108.818 53.9313 108.454C54.1908 108.173 54.9673 107.74 55.3071 107.671C55.6644 107.569 55.8001 107.555 55.9499 107.524L55.9847 107.517C56.1694 107.485 56.3532 107.453 56.536 107.421L54.5031 109.902C54.5083 109.705 54.5135 109.51 54.5187 109.316L54.5473 107.143L56.6318 106.835C56.8372 106.808 57.0147 106.781 57.0006 106.788C57.0187 106.791 57.2323 106.727 57.4174 106.671L55.8491 108.24C55.9557 107.947 56.0615 107.658 56.1666 107.37L56.5252 106.339L57.4623 105.919C57.717 105.81 57.9702 105.701 58.2219 105.593L58.4753 105.492C58.7165 105.42 58.9564 105.347 59.1952 105.275L57.5493 107.56C57.5551 107.364 57.5608 107.169 57.5665 106.974L57.5786 106.066L58.1331 105.429C59.2945 104.131 60.5236 103.149 61.6606 102.239L61.6872 102.217C61.9824 101.99 62.267 101.759 62.5393 101.522L62.1914 101.929C62.3933 101.641 62.595 101.353 62.7969 101.065L63.0729 100.728C63.5179 100.307 63.9179 99.8377 64.3404 99.2706L64.1622 99.5659C64.2627 99.3731 64.3633 99.1795 64.4642 98.9852L64.807 98.3214L65.4275 98.0212C65.5297 97.9724 65.6296 97.9228 65.6314 97.9229C65.6529 97.909 65.4193 98.0539 65.2689 98.2601C65.13 98.4535 65.1526 98.4605 65.1758 98.4017C65.2033 98.3431 65.2474 98.2395 65.293 98.1318L65.2793 98.166C65.3792 97.9185 65.4793 97.6695 65.5797 97.4189L66.0568 96.6881C66.2524 96.496 66.4489 96.3025 66.6466 96.1074L66.0781 97.1395C66.1653 96.7643 66.2603 96.3904 66.3617 96.0172C66.3782 95.9564 66.3862 95.9108 66.3878 95.8763L66.5584 95.282L66.9689 94.8994C67.07 94.7336 66.7523 94.7742 66.9567 94.5744C67.155 94.3806 67.2225 94.2944 67.2412 94.2647C67.2659 94.232 67.3408 94.0838 67.429 93.8469L67.3632 94.0554C67.437 93.7954 67.4831 93.5784 67.6382 93.1289C67.8253 92.6162 68.0108 92.3249 68.1237 92.1096L68.14 92.0797C68.4999 91.4525 68.653 91.1655 68.9533 90.5084L68.8689 92.1921C68.7756 91.8979 68.6824 91.6038 68.5893 91.3096L67.6084 88.2309L70.7791 88.2723C70.9741 88.2752 71.1691 88.2781 71.3641 88.281L69.0922 90.2266C69.2306 89.4161 69.3821 88.5862 69.5694 87.743L69.5724 87.7287C69.9599 86.0484 70.2615 84.3476 70.455 82.6247C70.498 82.2379 70.2125 82.7692 70.2725 82.1501C70.3936 80.8792 70.5301 79.2711 70.6378 77.9807C70.6896 77.3505 70.8481 78.2007 70.8944 77.5643C70.9987 76.0807 70.9773 74.4805 70.8394 72.9558C70.779 72.3077 70.6386 73.3037 70.5749 72.4619C70.3856 70.0989 70.0344 67.7609 69.5666 65.4337L69.5697 65.4478C69.4754 64.996 69.3841 64.5441 69.2958 64.0919L69.2825 64.0245C69.2389 63.7544 69.1955 63.4842 69.1525 63.2138C69.1096 62.9452 69.0668 62.6755 69.0243 62.4057L69.0213 62.3889C68.9886 62.1699 68.9543 61.9341 68.9312 61.7969C68.9154 61.6875 68.8699 61.5095 68.8117 61.2837L69.8632 62.5503C69.671 62.4474 69.4788 62.3443 69.2866 62.2408L67.4634 61.2989L68.3801 59.5213C68.4833 59.3291 68.5868 59.1369 68.6906 58.9448L69.5881 61.6373C69.3964 61.5336 69.2046 61.4295 69.0129 61.3252L67.4611 60.5236L68.0174 58.9217C68.1249 58.6326 68.2329 58.3434 68.3415 58.054L69.3203 60.4172C69.1291 60.3123 68.9379 60.2071 68.7467 60.1016L67.0141 59.2067L67.8852 57.517C67.9905 57.3259 68.0961 57.1349 68.2021 56.9437L69.0514 59.4917C68.8608 59.3859 68.6701 59.2796 68.4794 59.1731L66.7973 58.3044L67.643 56.6639C67.7494 56.4734 67.856 56.2828 67.9631 56.0922L67.7926 57.2073C67.7645 56.963 67.7508 56.805 67.7404 56.736C67.7243 56.6482 67.7372 56.4675 67.7488 56.2657L67.9801 56.7154C67.9011 56.3865 67.8143 56.2157 67.3527 55.3639C67.2134 55.3054 67.1009 55.3574 66.9785 55.3556C66.894 55.1331 66.8497 54.9873 66.8016 54.842L66.7907 54.8078C66.3847 53.4697 65.9169 52.171 65.3643 50.9079L65.4146 51.0105C65.2008 50.5977 64.9969 50.1789 64.8038 49.7541L64.6999 49.4714C64.4483 48.4812 64.2629 47.7321 63.9312 47.164C63.3548 46.1785 62.9227 45.1705 62.5258 44.231C62.1461 43.3088 61.9068 42.7241 61.5247 42.3303L61.543 42.3485C61.4171 42.2206 61.2912 42.0927 61.1653 41.9649L60.6748 41.4713L60.6826 40.8135C60.6938 40.4985 60.6716 40.2283 60.6958 40.3599C60.7266 40.4033 60.567 40.0711 60.4285 39.811L60.4638 39.8728C59.8969 38.8953 59.3858 37.9082 58.8923 36.9344C58.6381 36.4262 58.371 35.9335 58.0865 35.4527L58.3165 35.7418C57.9225 35.3443 57.5294 34.9418 57.1395 34.5321L56.7106 34.0828L56.7172 33.4948C56.721 33.2022 56.7246 32.9094 56.7282 32.6166L57.3841 33.8428C57.0942 33.6442 56.804 33.4456 56.5135 33.247L55.8547 32.7968L55.8631 32.0311C55.864 31.9523 55.8649 31.8776 55.8651 31.811C55.865 31.6611 55.822 31.7232 55.7793 31.7378C55.7579 31.7474 55.7365 31.747 55.7201 31.7165C55.7058 31.6974 55.6842 31.59 55.6977 31.6701C55.7055 31.72 55.7558 31.8532 55.7907 31.9043C55.8256 31.9595 55.8224 31.945 55.7909 31.9084C55.7259 31.8303 55.5888 31.6871 55.4554 31.5476L55.4839 31.5762C55.2359 31.3296 54.9881 31.0836 54.7407 30.838L54.339 30.1965C53.7752 28.4031 52.6612 26.8094 51.3615 25.083L51.3793 25.1053C51.22 24.9004 51.0608 24.6948 50.9017 24.4885L50.8149 24.3709C50.3098 23.5641 49.8385 22.7751 49.3377 22.0341C49.3313 22.0247 49.3249 22.0153 49.3185 22.0059C49.1484 21.756 49.2833 21.6888 49.0852 21.3091L49.0481 21.2566C48.9806 21.107 48.8663 20.9082 48.6686 20.6366C48.6122 20.5597 48.3705 20.2171 48.0856 19.8519L48.0924 19.8611C47.937 19.6654 47.7716 19.4586 47.6184 19.2702C47.404 19.0038 47.2161 18.7773 47.1098 18.6652C47.0639 18.618 47.1629 18.9679 46.8043 18.4874C46.4449 18.0052 46.0836 17.5181 45.7216 17.0275L45.7376 17.0485C45.275 16.4493 44.7883 15.7648 44.403 15.0089L44.3732 14.9486C44.296 14.7766 44.2194 14.6055 44.1424 14.4332L45.3331 15.1935C45.1382 15.1908 44.9432 15.1879 44.7482 15.185L43.8532 15.1768L43.5372 14.3648C43.349 13.8725 43.1631 13.3831 42.9771 12.8911L44.1632 13.6944C43.968 13.6907 43.773 13.6869 43.5782 13.683L42.4889 13.6733L42.3285 12.6185C42.3 12.4169 42.2745 12.2268 42.2539 12.136C42.2315 12.0299 42.1676 11.8275 42.1095 11.6379L42.8934 12.4222C42.6023 12.3176 42.3121 12.213 42.0229 12.1084L41.3809 11.888L41.227 11.2484C41.1433 10.8738 41.0605 10.5006 40.9786 10.1292C40.9739 10.1077 40.9698 10.0878 40.9662 10.0695L41.7408 10.9065C41.3165 10.7407 41.8618 10.8018 41.5011 10.6693C41.3074 10.5982 41.1121 10.5275 40.9156 10.4572L40.46 10.3009L40.2913 9.86814C40.1087 9.38112 39.9195 8.88957 39.7271 8.39611L40.3377 8.9722C40.0467 8.87241 39.7546 8.77303 39.4621 8.67386L39.0194 8.52212L38.8551 8.10117C38.6623 7.61194 38.4684 7.12232 38.2766 6.63486L38.9889 7.23319C38.7124 7.16 38.5301 7.18272 37.9791 6.93068C37.6736 6.79015 37.3839 6.4071 37.3099 6.23175C37.2139 6.03862 37.172 5.91825 37.1225 5.79528L37.1425 5.84086C36.9155 5.3279 36.6829 5.04188 36.2385 4.61942L36.359 4.70976C36.2331 4.6237 36.11 4.53984 35.9735 4.44226C35.8812 4.37606 35.7865 4.30429 35.7028 4.23387C35.3814 3.95626 35.2547 3.79547 35.1431 3.66081L34.9467 3.40146C34.8073 2.89612 34.984 2.93761 34.8573 2.36404C34.8498 2.3301 34.8411 2.29402 34.8311 2.25556C34.8105 2.17461 34.6201 1.78045 34.4838 1.45954L34.6696 1.62773C34.4609 1.52357 34.3018 1.43241 34.2989 1.38041C34.2599 1.03414 34.9005 0.923323 34.8072 0.534639C34.7946 0.506174 34.596 0.389406 34.2254 0.301802C33.8797 0.234305 33.6968 0.223609 33.6899 0.187959C33.6899 0.187945 33.6899 0.187932 33.6899 0.187918C33.6958 0.170378 33.7574 0.148 34 0.136527C34.0181 0.137532 34.2121 0.139164 34.4932 0.213785C34.7552 0.286045 34.9536 0.363213 35.1507 0.426157L35.4497 0.535897L35.6315 0.861264C35.7419 1.04368 35.8438 1.20513 35.9026 1.27969C36.0225 1.43243 35.9786 1.06902 36.1967 1.39513C36.2455 1.46798 36.2883 1.54597 36.3293 1.62924C36.453 1.88039 36.5564 2.18057 36.7488 2.53722L36.4633 2.16025C36.5118 2.199 36.5609 2.2364 36.613 2.27399C36.8512 2.44498 36.9342 2.45254 37.0351 2.47557C37.1233 2.49347 37.2314 2.5241 37.6026 2.73298L37.7866 2.87091C37.8714 2.93972 37.9684 3.02148 38.0823 3.12586ZM4.85579 74.7457C4.79459 74.9795 4.80862 75.1644 4.86246 75.2974L4.92041 76.7183L3.50812 76.7132C3.16969 76.833 3.1454 77.2165 3.50812 77.3088L5.54092 77.3162L5.45751 75.271C5.48253 75.1505 5.4743 74.9898 5.4131 74.7869C5.39618 74.7353 4.86865 74.6936 4.85579 74.7457ZM31.2371 47.1042C30.6066 47.81 30.4487 48.4867 30.6269 48.7114C30.659 48.7565 30.7048 48.7812 30.7612 48.7855C30.8658 48.7875 31.004 48.7255 31.171 48.5677C31.9267 47.8505 31.5324 46.7571 31.2371 47.1042ZM37.525 35.4012C37.2808 35.798 37.1386 36.1051 37.0936 36.3555L37.0878 36.3652C37.0149 36.835 37.3777 37.0832 37.7449 36.7655L37.7565 36.7461C37.9194 36.5812 38.1012 36.2914 38.216 35.8434C38.2514 35.7112 37.5804 35.3084 37.525 35.4012ZM37.693 5.57652C37.7033 5.55065 37.3408 4.90764 37.3113 4.91068C37.0511 4.73352 37.5078 5.42898 37.6344 5.60958L37.6256 5.58952C37.6607 5.63338 37.6843 5.63407 37.6856 5.56499L37.6931 5.58201C37.693 5.58022 37.693 5.5784 37.693 5.57652ZM39.1728 22.4004C38.9375 22.8902 39.2317 24.2647 39.5354 23.6613C39.7962 23.1691 39.4866 21.7818 39.1728 22.4004ZM25.924 112.493C25.9334 112.518 26.4912 112.643 26.4958 112.538C26.5069 112.223 25.7498 112.151 25.924 112.493ZM34.8276 2.44894C34.8364 2.46037 34.8453 2.47201 34.8541 2.48386L34.8461 2.46554C35.4801 3.25867 35.5415 4.22096 35.2276 4.9762C35.031 5.44158 34.7403 5.84561 34.4305 6.1524C34.4302 6.15273 34.4299 6.15307 34.4296 6.1534L34.5657 6.66655L35.0962 6.66639C35.5084 7.38562 35.5605 8.10795 35.0962 8.51478L33.144 8.51538L32.6429 6.62699C32.6426 6.62681 32.6424 6.62663 32.6421 6.62646C32.4195 6.47319 32.2388 6.20746 32.1793 5.79034L32.1906 5.8317C32.1682 5.66255 32.1736 5.46302 32.21 5.22309C32.2682 4.7971 32.8252 5.36462 33.4027 5.49027L33.3965 5.4677C33.6044 5.52863 33.7868 5.51383 33.8789 5.33983L33.883 5.35496C33.9014 5.32173 33.9162 5.2827 33.9269 5.23684C34.1236 4.31752 33.3158 3.88733 33.0462 3.27456L33.0364 3.25217C32.9188 2.98379 32.8625 2.69959 32.8963 2.237C32.9207 1.72769 33.2166 1.36956 33.4384 1.0296C33.5353 0.88232 33.3442 1.30692 33.6732 1.76092C33.9882 2.17173 34.7817 2.35659 34.8353 2.45222C34.8327 2.45112 34.8302 2.45003 34.8276 2.44894ZM3.48454 75.3646C3.47223 75.3553 3.16306 75.3464 2.92316 75.3443L2.90481 75.3444L2.91064 75.3617C2.95662 75.5038 2.99668 75.6195 3.00444 75.6247C3.21664 75.7561 3.24086 75.5287 3.18018 75.2719L2.92316 75.6284C3.15402 75.6491 3.42706 75.6149 3.50812 75.5216L3.67902 75.5222L3.67201 75.3502C3.63643 75.322 3.59404 75.32 3.54512 75.3559L3.54671 75.3947L3.50812 75.3946C3.50166 75.3849 3.49384 75.3749 3.48454 75.3646ZM17.6384 85.3261C17.6524 85.3173 17.7251 85.1583 17.817 84.9346L17.8907 84.7363L17.8239 84.5359C17.7472 84.2766 17.642 83.939 17.5488 83.6518L16.9623 84.4653C17.2346 84.4674 17.4634 84.4657 17.5473 84.4587L18.3955 84.4586L18.1275 83.6539C18.1203 83.6372 18.1152 83.6273 18.1121 83.6243C17.8814 83.4379 17.7846 83.537 17.7747 83.7714L17.8797 84.0868L17.5473 84.0868C17.4039 84.032 17.1939 83.9943 16.9623 83.9745L17.0831 83.8069C17.1549 84.1054 17.2676 84.4285 17.3911 84.68L17.4071 84.728L17.3894 84.7755C17.2918 85.2063 17.3178 85.5164 17.6384 85.3261ZM17.5082 25.1084C17.5795 24.9447 17.6629 24.7843 17.7568 24.6306L18.0301 24.3552L18.4247 24.3538C18.6181 24.3072 18.8147 24.2755 19.0097 24.2601L19.7634 24.2575L19.998 24.9814C20.0704 25.1582 20.1274 25.3381 20.1663 25.5176C20.2227 25.7737 20.2424 26.0335 20.2154 26.2806C20.207 26.3622 20.1932 26.4408 20.1742 26.5177C20.1544 26.4502 20.1344 26.3826 20.1143 26.315C20.0426 26.0758 19.97 25.838 19.8968 25.6001C19.8438 25.4243 19.7893 25.2451 19.7349 25.0657L19.5627 24.5345L19.0097 24.5365C18.8148 24.5335 18.6198 24.5303 18.4247 24.5267L18.1024 24.5278L17.8792 24.7528C17.7559 24.8717 17.6323 24.9903 17.5082 25.1084Z" fill="black"/>
<defs>
<linearGradient id="paint0_linear_4_186" x1="37.5" y1="1" x2="37.5" y2="114" gradientUnits="userSpaceOnUse">
<stop stop-color="#9D8217"/>
<stop offset="1" stop-color="#B12C2C"/>
</linearGradient>
</defs>
</svg>
